G04 #@! TF.GenerationSoftware,KiCad,Pcbnew,(5.0.1)-3*
G04 #@! TF.CreationDate,2020-02-12T20:38:56-05:00*
G04 #@! TF.ProjectId,TinkerBot,54696E6B6572426F742E6B696361645F,rev?*
G04 #@! TF.SameCoordinates,Original*
G04 #@! TF.FileFunction,Legend,Bot*
G04 #@! TF.FilePolarity,Positive*
%FSLAX46Y46*%
G04 Gerber Fmt 4.6, Leading zero omitted, Abs format (unit mm)*
G04 Created by KiCad (PCBNEW (5.0.1)-3) date 2/12/2020 8:38:56 PM*
%MOMM*%
%LPD*%
G01*
G04 APERTURE LIST*
%ADD10C,0.300000*%
%ADD11C,0.500000*%
%ADD12C,0.200000*%
%ADD13C,0.150000*%
G04 APERTURE END LIST*
D10*
X7152428Y-44042857D02*
X6938142Y-44114285D01*
X6866714Y-44185714D01*
X6795285Y-44328571D01*
X6795285Y-44542857D01*
X6866714Y-44685714D01*
X6938142Y-44757142D01*
X7081000Y-44828571D01*
X7652428Y-44828571D01*
X7652428Y-43328571D01*
X7152428Y-43328571D01*
X7009571Y-43400000D01*
X6938142Y-43471428D01*
X6866714Y-43614285D01*
X6866714Y-43757142D01*
X6938142Y-43900000D01*
X7009571Y-43971428D01*
X7152428Y-44042857D01*
X7652428Y-44042857D01*
X5509571Y-44828571D02*
X5509571Y-44042857D01*
X5581000Y-43900000D01*
X5723857Y-43828571D01*
X6009571Y-43828571D01*
X6152428Y-43900000D01*
X5509571Y-44757142D02*
X5652428Y-44828571D01*
X6009571Y-44828571D01*
X6152428Y-44757142D01*
X6223857Y-44614285D01*
X6223857Y-44471428D01*
X6152428Y-44328571D01*
X6009571Y-44257142D01*
X5652428Y-44257142D01*
X5509571Y-44185714D01*
X5009571Y-43828571D02*
X4438142Y-43828571D01*
X4795285Y-43328571D02*
X4795285Y-44614285D01*
X4723857Y-44757142D01*
X4581000Y-44828571D01*
X4438142Y-44828571D01*
X4152428Y-43828571D02*
X3581000Y-43828571D01*
X3938142Y-43328571D02*
X3938142Y-44614285D01*
X3866714Y-44757142D01*
X3723857Y-44828571D01*
X3581000Y-44828571D01*
X2509571Y-44757142D02*
X2652428Y-44828571D01*
X2938142Y-44828571D01*
X3081000Y-44757142D01*
X3152428Y-44614285D01*
X3152428Y-44042857D01*
X3081000Y-43900000D01*
X2938142Y-43828571D01*
X2652428Y-43828571D01*
X2509571Y-43900000D01*
X2438142Y-44042857D01*
X2438142Y-44185714D01*
X3152428Y-44328571D01*
X1795285Y-44828571D02*
X1795285Y-43828571D01*
X1795285Y-44114285D02*
X1723857Y-43971428D01*
X1652428Y-43900000D01*
X1509571Y-43828571D01*
X1366714Y-43828571D01*
X1009571Y-43828571D02*
X652428Y-44828571D01*
X295285Y-43828571D02*
X652428Y-44828571D01*
X795285Y-45185714D01*
X866714Y-45257142D01*
X1009571Y-45328571D01*
X-1418999Y-44828571D02*
X-1418999Y-43328571D01*
X-1418999Y-44042857D02*
X-2276142Y-44042857D01*
X-2276142Y-44828571D02*
X-2276142Y-43328571D01*
X-3204714Y-44828571D02*
X-3061857Y-44757142D01*
X-2990428Y-44685714D01*
X-2918999Y-44542857D01*
X-2918999Y-44114285D01*
X-2990428Y-43971428D01*
X-3061857Y-43900000D01*
X-3204714Y-43828571D01*
X-3418999Y-43828571D01*
X-3561857Y-43900000D01*
X-3633285Y-43971428D01*
X-3704714Y-44114285D01*
X-3704714Y-44542857D01*
X-3633285Y-44685714D01*
X-3561857Y-44757142D01*
X-3418999Y-44828571D01*
X-3204714Y-44828571D01*
X-4561857Y-44828571D02*
X-4418999Y-44757142D01*
X-4347571Y-44614285D01*
X-4347571Y-43328571D01*
X-5776142Y-44828571D02*
X-5776142Y-43328571D01*
X-5776142Y-44757142D02*
X-5633285Y-44828571D01*
X-5347571Y-44828571D01*
X-5204714Y-44757142D01*
X-5133285Y-44685714D01*
X-5061857Y-44542857D01*
X-5061857Y-44114285D01*
X-5133285Y-43971428D01*
X-5204714Y-43900000D01*
X-5347571Y-43828571D01*
X-5633285Y-43828571D01*
X-5776142Y-43900000D01*
X-7061857Y-44757142D02*
X-6918999Y-44828571D01*
X-6633285Y-44828571D01*
X-6490428Y-44757142D01*
X-6418999Y-44614285D01*
X-6418999Y-44042857D01*
X-6490428Y-43900000D01*
X-6633285Y-43828571D01*
X-6918999Y-43828571D01*
X-7061857Y-43900000D01*
X-7133285Y-44042857D01*
X-7133285Y-44185714D01*
X-6418999Y-44328571D01*
X-7776142Y-44828571D02*
X-7776142Y-43828571D01*
X-7776142Y-44114285D02*
X-7847571Y-43971428D01*
X-7918999Y-43900000D01*
X-8061857Y-43828571D01*
X-8204714Y-43828571D01*
D11*
X-40299000Y-73902497D02*
X39701000Y-73902497D01*
X39701000Y-13902497D02*
X-40299000Y-13902497D01*
X39701000Y-73902497D02*
X39701000Y-13902497D01*
X-40299000Y-13902497D02*
X-40299000Y-73902497D01*
D12*
G04 #@! TO.C,U1*
X-44657000Y1095000D02*
X-43657000Y-905000D01*
X-42657000Y1095000D02*
X-44657000Y1095000D01*
X-43657000Y-905000D02*
X-42657000Y1095000D01*
X-42657000Y-905000D02*
X-44657000Y-905000D01*
X-43657000Y2095000D02*
X-43657000Y-1905000D01*
X-32157000Y-3405000D02*
X-32157000Y3595000D01*
X-59157000Y-3405000D02*
X-32157000Y-3405000D01*
X-59157000Y3595000D02*
X-59157000Y-3405000D01*
X-32157000Y3595000D02*
X-59157000Y3595000D01*
G04 #@! TO.C,U4*
X45789000Y1173000D02*
X46789000Y-827000D01*
X47789000Y1173000D02*
X45789000Y1173000D01*
X46789000Y-827000D02*
X47789000Y1173000D01*
X47789000Y-827000D02*
X45789000Y-827000D01*
X46789000Y2173000D02*
X46789000Y-1827000D01*
X58289000Y-3327000D02*
X58289000Y3673000D01*
X31289000Y-3327000D02*
X58289000Y-3327000D01*
X31289000Y3673000D02*
X31289000Y-3327000D01*
X58289000Y3673000D02*
X31289000Y3673000D01*
G04 #@! TO.C,U1*
D13*
X-60030095Y593619D02*
X-60030095Y-215904D01*
X-60077714Y-311142D01*
X-60125333Y-358761D01*
X-60220571Y-406380D01*
X-60411047Y-406380D01*
X-60506285Y-358761D01*
X-60553904Y-311142D01*
X-60601523Y-215904D01*
X-60601523Y593619D01*
X-61601523Y-406380D02*
X-61030095Y-406380D01*
X-61315809Y-406380D02*
X-61315809Y593619D01*
X-61220571Y450761D01*
X-61125333Y355523D01*
X-61030095Y307904D01*
G04 #@! TO.C,U4*
X30310904Y720619D02*
X30310904Y-88904D01*
X30263285Y-184142D01*
X30215666Y-231761D01*
X30120428Y-279380D01*
X29929952Y-279380D01*
X29834714Y-231761D01*
X29787095Y-184142D01*
X29739476Y-88904D01*
X29739476Y720619D01*
X28834714Y387285D02*
X28834714Y-279380D01*
X29072809Y768238D02*
X29310904Y53952D01*
X28691857Y53952D01*
G04 #@! TD*
M02*
