G04 #@! TF.GenerationSoftware,KiCad,Pcbnew,(5.0.1)-3*
G04 #@! TF.CreationDate,2020-02-12T20:38:56-05:00*
G04 #@! TF.ProjectId,TinkerBot,54696E6B6572426F742E6B696361645F,rev?*
G04 #@! TF.SameCoordinates,Original*
G04 #@! TF.FileFunction,Soldermask,Bot*
G04 #@! TF.FilePolarity,Negative*
%FSLAX46Y46*%
G04 Gerber Fmt 4.6, Leading zero omitted, Abs format (unit mm)*
G04 Created by KiCad (PCBNEW (5.0.1)-3) date 2/12/2020 8:38:56 PM*
%MOMM*%
%LPD*%
G01*
G04 APERTURE LIST*
%ADD10C,0.100000*%
G04 APERTURE END LIST*
D10*
G36*
X-2097858Y-116223242D02*
X-1949898Y-116284530D01*
X-1816742Y-116373502D01*
X-1703502Y-116486742D01*
X-1614530Y-116619898D01*
X-1553242Y-116767858D01*
X-1522000Y-116924925D01*
X-1522000Y-117085075D01*
X-1553242Y-117242142D01*
X-1614530Y-117390102D01*
X-1703502Y-117523258D01*
X-1816742Y-117636498D01*
X-1949898Y-117725470D01*
X-2097858Y-117786758D01*
X-2254925Y-117818000D01*
X-2415075Y-117818000D01*
X-2572142Y-117786758D01*
X-2720102Y-117725470D01*
X-2853258Y-117636498D01*
X-2966498Y-117523258D01*
X-3055470Y-117390102D01*
X-3116758Y-117242142D01*
X-3148000Y-117085075D01*
X-3148000Y-116924925D01*
X-3116758Y-116767858D01*
X-3055470Y-116619898D01*
X-2966498Y-116486742D01*
X-2853258Y-116373502D01*
X-2720102Y-116284530D01*
X-2572142Y-116223242D01*
X-2415075Y-116192000D01*
X-2254925Y-116192000D01*
X-2097858Y-116223242D01*
X-2097858Y-116223242D01*
G37*
G36*
X442142Y-116223242D02*
X590102Y-116284530D01*
X723258Y-116373502D01*
X836498Y-116486742D01*
X925470Y-116619898D01*
X986758Y-116767858D01*
X1018000Y-116924925D01*
X1018000Y-117085075D01*
X986758Y-117242142D01*
X925470Y-117390102D01*
X836498Y-117523258D01*
X723258Y-117636498D01*
X590102Y-117725470D01*
X442142Y-117786758D01*
X285075Y-117818000D01*
X124925Y-117818000D01*
X-32142Y-117786758D01*
X-180102Y-117725470D01*
X-313258Y-117636498D01*
X-426498Y-117523258D01*
X-515470Y-117390102D01*
X-576758Y-117242142D01*
X-608000Y-117085075D01*
X-608000Y-116924925D01*
X-576758Y-116767858D01*
X-515470Y-116619898D01*
X-426498Y-116486742D01*
X-313258Y-116373502D01*
X-180102Y-116284530D01*
X-32142Y-116223242D01*
X124925Y-116192000D01*
X285075Y-116192000D01*
X442142Y-116223242D01*
X442142Y-116223242D01*
G37*
G36*
X2982142Y-116223242D02*
X3130102Y-116284530D01*
X3263258Y-116373502D01*
X3376498Y-116486742D01*
X3465470Y-116619898D01*
X3526758Y-116767858D01*
X3558000Y-116924925D01*
X3558000Y-117085075D01*
X3526758Y-117242142D01*
X3465470Y-117390102D01*
X3376498Y-117523258D01*
X3263258Y-117636498D01*
X3130102Y-117725470D01*
X2982142Y-117786758D01*
X2825075Y-117818000D01*
X2664925Y-117818000D01*
X2507858Y-117786758D01*
X2359898Y-117725470D01*
X2226742Y-117636498D01*
X2113502Y-117523258D01*
X2024530Y-117390102D01*
X1963242Y-117242142D01*
X1932000Y-117085075D01*
X1932000Y-116924925D01*
X1963242Y-116767858D01*
X2024530Y-116619898D01*
X2113502Y-116486742D01*
X2226742Y-116373502D01*
X2359898Y-116284530D01*
X2507858Y-116223242D01*
X2664925Y-116192000D01*
X2825075Y-116192000D01*
X2982142Y-116223242D01*
X2982142Y-116223242D01*
G37*
G36*
X-4062000Y-117818000D02*
X-5688000Y-117818000D01*
X-5688000Y-116192000D01*
X-4062000Y-116192000D01*
X-4062000Y-117818000D01*
X-4062000Y-117818000D01*
G37*
G36*
X75352527Y-55488736D02*
X75452410Y-55508604D01*
X75734674Y-55625521D01*
X75988705Y-55795259D01*
X76204741Y-56011295D01*
X76374479Y-56265326D01*
X76491396Y-56547590D01*
X76551000Y-56847240D01*
X76551000Y-57152760D01*
X76491396Y-57452410D01*
X76374479Y-57734674D01*
X76204741Y-57988705D01*
X75988705Y-58204741D01*
X75734674Y-58374479D01*
X75452410Y-58491396D01*
X75352527Y-58511264D01*
X75152762Y-58551000D01*
X74847238Y-58551000D01*
X74647473Y-58511264D01*
X74547590Y-58491396D01*
X74265326Y-58374479D01*
X74011295Y-58204741D01*
X73795259Y-57988705D01*
X73625521Y-57734674D01*
X73508604Y-57452410D01*
X73449000Y-57152760D01*
X73449000Y-56847240D01*
X73508604Y-56547590D01*
X73625521Y-56265326D01*
X73795259Y-56011295D01*
X74011295Y-55795259D01*
X74265326Y-55625521D01*
X74547590Y-55508604D01*
X74647473Y-55488736D01*
X74847238Y-55449000D01*
X75152762Y-55449000D01*
X75352527Y-55488736D01*
X75352527Y-55488736D01*
G37*
G36*
X-74647473Y-55488736D02*
X-74547590Y-55508604D01*
X-74265326Y-55625521D01*
X-74011295Y-55795259D01*
X-73795259Y-56011295D01*
X-73625521Y-56265326D01*
X-73508604Y-56547590D01*
X-73449000Y-56847240D01*
X-73449000Y-57152760D01*
X-73508604Y-57452410D01*
X-73625521Y-57734674D01*
X-73795259Y-57988705D01*
X-74011295Y-58204741D01*
X-74265326Y-58374479D01*
X-74547590Y-58491396D01*
X-74647473Y-58511264D01*
X-74847238Y-58551000D01*
X-75152762Y-58551000D01*
X-75352527Y-58511264D01*
X-75452410Y-58491396D01*
X-75734674Y-58374479D01*
X-75988705Y-58204741D01*
X-76204741Y-57988705D01*
X-76374479Y-57734674D01*
X-76491396Y-57452410D01*
X-76551000Y-57152760D01*
X-76551000Y-56847240D01*
X-76491396Y-56547590D01*
X-76374479Y-56265326D01*
X-76204741Y-56011295D01*
X-75988705Y-55795259D01*
X-75734674Y-55625521D01*
X-75452410Y-55508604D01*
X-75352527Y-55488736D01*
X-75152762Y-55449000D01*
X-74847238Y-55449000D01*
X-74647473Y-55488736D01*
X-74647473Y-55488736D01*
G37*
G36*
X43177821Y-48518313D02*
X43177824Y-48518314D01*
X43177825Y-48518314D01*
X43338239Y-48566975D01*
X43338241Y-48566976D01*
X43338244Y-48566977D01*
X43486078Y-48645995D01*
X43615659Y-48752341D01*
X43722005Y-48881922D01*
X43801023Y-49029756D01*
X43849687Y-49190179D01*
X43866117Y-49357000D01*
X43849687Y-49523821D01*
X43801023Y-49684244D01*
X43722005Y-49832078D01*
X43615659Y-49961659D01*
X43486078Y-50068005D01*
X43338244Y-50147023D01*
X43338241Y-50147024D01*
X43338239Y-50147025D01*
X43177825Y-50195686D01*
X43177824Y-50195686D01*
X43177821Y-50195687D01*
X43052804Y-50208000D01*
X42969196Y-50208000D01*
X42844179Y-50195687D01*
X42844176Y-50195686D01*
X42844175Y-50195686D01*
X42683761Y-50147025D01*
X42683759Y-50147024D01*
X42683756Y-50147023D01*
X42535922Y-50068005D01*
X42406341Y-49961659D01*
X42299995Y-49832078D01*
X42220977Y-49684244D01*
X42172313Y-49523821D01*
X42155883Y-49357000D01*
X42172313Y-49190179D01*
X42220977Y-49029756D01*
X42299995Y-48881922D01*
X42406341Y-48752341D01*
X42535922Y-48645995D01*
X42683756Y-48566977D01*
X42683759Y-48566976D01*
X42683761Y-48566975D01*
X42844175Y-48518314D01*
X42844176Y-48518314D01*
X42844179Y-48518313D01*
X42969196Y-48506000D01*
X43052804Y-48506000D01*
X43177821Y-48518313D01*
X43177821Y-48518313D01*
G37*
G36*
X53800228Y-45744703D02*
X53955100Y-45808853D01*
X54094481Y-45901985D01*
X54213015Y-46020519D01*
X54306147Y-46159900D01*
X54370297Y-46314772D01*
X54403000Y-46479184D01*
X54403000Y-46646816D01*
X54370297Y-46811228D01*
X54306147Y-46966100D01*
X54213015Y-47105481D01*
X54094481Y-47224015D01*
X53955100Y-47317147D01*
X53800228Y-47381297D01*
X53635816Y-47414000D01*
X53468184Y-47414000D01*
X53303772Y-47381297D01*
X53148900Y-47317147D01*
X53009519Y-47224015D01*
X52890985Y-47105481D01*
X52797853Y-46966100D01*
X52733703Y-46811228D01*
X52701000Y-46646816D01*
X52701000Y-46479184D01*
X52733703Y-46314772D01*
X52797853Y-46159900D01*
X52890985Y-46020519D01*
X53009519Y-45901985D01*
X53148900Y-45808853D01*
X53303772Y-45744703D01*
X53468184Y-45712000D01*
X53635816Y-45712000D01*
X53800228Y-45744703D01*
X53800228Y-45744703D01*
G37*
G36*
X57610228Y-45664703D02*
X57765100Y-45728853D01*
X57904481Y-45821985D01*
X58023015Y-45940519D01*
X58116147Y-46079900D01*
X58180297Y-46234772D01*
X58213000Y-46399184D01*
X58213000Y-46566816D01*
X58180297Y-46731228D01*
X58116147Y-46886100D01*
X58023015Y-47025481D01*
X57904481Y-47144015D01*
X57765100Y-47237147D01*
X57610228Y-47301297D01*
X57445816Y-47334000D01*
X57278184Y-47334000D01*
X57113772Y-47301297D01*
X56958900Y-47237147D01*
X56819519Y-47144015D01*
X56700985Y-47025481D01*
X56607853Y-46886100D01*
X56543703Y-46731228D01*
X56511000Y-46566816D01*
X56511000Y-46399184D01*
X56543703Y-46234772D01*
X56607853Y-46079900D01*
X56700985Y-45940519D01*
X56819519Y-45821985D01*
X56958900Y-45728853D01*
X57113772Y-45664703D01*
X57278184Y-45632000D01*
X57445816Y-45632000D01*
X57610228Y-45664703D01*
X57610228Y-45664703D01*
G37*
G36*
X53800228Y-40744703D02*
X53955100Y-40808853D01*
X54094481Y-40901985D01*
X54213015Y-41020519D01*
X54306147Y-41159900D01*
X54370297Y-41314772D01*
X54403000Y-41479184D01*
X54403000Y-41646816D01*
X54370297Y-41811228D01*
X54306147Y-41966100D01*
X54213015Y-42105481D01*
X54094481Y-42224015D01*
X53955100Y-42317147D01*
X53800228Y-42381297D01*
X53635816Y-42414000D01*
X53468184Y-42414000D01*
X53303772Y-42381297D01*
X53148900Y-42317147D01*
X53009519Y-42224015D01*
X52890985Y-42105481D01*
X52797853Y-41966100D01*
X52733703Y-41811228D01*
X52701000Y-41646816D01*
X52701000Y-41479184D01*
X52733703Y-41314772D01*
X52797853Y-41159900D01*
X52890985Y-41020519D01*
X53009519Y-40901985D01*
X53148900Y-40808853D01*
X53303772Y-40744703D01*
X53468184Y-40712000D01*
X53635816Y-40712000D01*
X53800228Y-40744703D01*
X53800228Y-40744703D01*
G37*
G36*
X57610228Y-40664703D02*
X57765100Y-40728853D01*
X57904481Y-40821985D01*
X58023015Y-40940519D01*
X58116147Y-41079900D01*
X58180297Y-41234772D01*
X58213000Y-41399184D01*
X58213000Y-41566816D01*
X58180297Y-41731228D01*
X58116147Y-41886100D01*
X58023015Y-42025481D01*
X57904481Y-42144015D01*
X57765100Y-42237147D01*
X57610228Y-42301297D01*
X57445816Y-42334000D01*
X57278184Y-42334000D01*
X57113772Y-42301297D01*
X56958900Y-42237147D01*
X56819519Y-42144015D01*
X56700985Y-42025481D01*
X56607853Y-41886100D01*
X56543703Y-41731228D01*
X56511000Y-41566816D01*
X56511000Y-41399184D01*
X56543703Y-41234772D01*
X56607853Y-41079900D01*
X56700985Y-40940519D01*
X56819519Y-40821985D01*
X56958900Y-40728853D01*
X57113772Y-40664703D01*
X57278184Y-40632000D01*
X57445816Y-40632000D01*
X57610228Y-40664703D01*
X57610228Y-40664703D01*
G37*
G36*
X43259228Y-38378703D02*
X43414100Y-38442853D01*
X43553481Y-38535985D01*
X43672015Y-38654519D01*
X43765147Y-38793900D01*
X43829297Y-38948772D01*
X43862000Y-39113184D01*
X43862000Y-39280816D01*
X43829297Y-39445228D01*
X43765147Y-39600100D01*
X43672015Y-39739481D01*
X43553481Y-39858015D01*
X43414100Y-39951147D01*
X43259228Y-40015297D01*
X43094816Y-40048000D01*
X42927184Y-40048000D01*
X42762772Y-40015297D01*
X42607900Y-39951147D01*
X42468519Y-39858015D01*
X42349985Y-39739481D01*
X42256853Y-39600100D01*
X42192703Y-39445228D01*
X42160000Y-39280816D01*
X42160000Y-39113184D01*
X42192703Y-38948772D01*
X42256853Y-38793900D01*
X42349985Y-38654519D01*
X42468519Y-38535985D01*
X42607900Y-38442853D01*
X42762772Y-38378703D01*
X42927184Y-38346000D01*
X43094816Y-38346000D01*
X43259228Y-38378703D01*
X43259228Y-38378703D01*
G37*
G36*
X55780719Y-35366520D02*
X55969880Y-35423901D01*
X56144212Y-35517083D01*
X56297015Y-35642485D01*
X56422417Y-35795288D01*
X56515599Y-35969619D01*
X56572980Y-36158780D01*
X56587500Y-36306206D01*
X56587500Y-36499793D01*
X56572980Y-36647219D01*
X56515599Y-36836380D01*
X56422417Y-37010712D01*
X56297015Y-37163515D01*
X56144212Y-37288917D01*
X55969881Y-37382099D01*
X55780720Y-37439480D01*
X55584000Y-37458855D01*
X55387281Y-37439480D01*
X55198120Y-37382099D01*
X55023788Y-37288917D01*
X54870985Y-37163515D01*
X54745583Y-37010712D01*
X54652401Y-36836381D01*
X54595020Y-36647220D01*
X54580500Y-36499794D01*
X54580500Y-36306207D01*
X54595020Y-36158781D01*
X54652401Y-35969620D01*
X54745583Y-35795288D01*
X54870985Y-35642485D01*
X55023788Y-35517083D01*
X55198119Y-35423901D01*
X55387280Y-35366520D01*
X55584000Y-35347145D01*
X55780719Y-35366520D01*
X55780719Y-35366520D01*
G37*
G36*
X58320719Y-35366520D02*
X58509880Y-35423901D01*
X58684212Y-35517083D01*
X58837015Y-35642485D01*
X58962417Y-35795288D01*
X59055599Y-35969619D01*
X59112980Y-36158780D01*
X59127500Y-36306206D01*
X59127500Y-36499793D01*
X59112980Y-36647219D01*
X59055599Y-36836380D01*
X58962417Y-37010712D01*
X58837015Y-37163515D01*
X58684212Y-37288917D01*
X58509881Y-37382099D01*
X58320720Y-37439480D01*
X58124000Y-37458855D01*
X57927281Y-37439480D01*
X57738120Y-37382099D01*
X57563788Y-37288917D01*
X57410985Y-37163515D01*
X57285583Y-37010712D01*
X57192401Y-36836381D01*
X57135020Y-36647220D01*
X57120500Y-36499794D01*
X57120500Y-36306207D01*
X57135020Y-36158781D01*
X57192401Y-35969620D01*
X57285583Y-35795288D01*
X57410985Y-35642485D01*
X57563788Y-35517083D01*
X57738119Y-35423901D01*
X57927280Y-35366520D01*
X58124000Y-35347145D01*
X58320719Y-35366520D01*
X58320719Y-35366520D01*
G37*
G36*
X54047500Y-37454000D02*
X52040500Y-37454000D01*
X52040500Y-35352000D01*
X54047500Y-35352000D01*
X54047500Y-37454000D01*
X54047500Y-37454000D01*
G37*
G36*
X4056556Y-34548313D02*
X4056559Y-34548314D01*
X4056560Y-34548314D01*
X4216974Y-34596975D01*
X4216976Y-34596976D01*
X4216979Y-34596977D01*
X4364813Y-34675995D01*
X4494394Y-34782341D01*
X4600740Y-34911922D01*
X4679758Y-35059756D01*
X4728422Y-35220179D01*
X4744852Y-35387000D01*
X4728422Y-35553821D01*
X4679758Y-35714244D01*
X4600740Y-35862078D01*
X4494394Y-35991659D01*
X4364813Y-36098005D01*
X4216979Y-36177023D01*
X4216976Y-36177024D01*
X4216974Y-36177025D01*
X4056560Y-36225686D01*
X4056559Y-36225686D01*
X4056556Y-36225687D01*
X3931539Y-36238000D01*
X3847931Y-36238000D01*
X3722914Y-36225687D01*
X3722911Y-36225686D01*
X3722910Y-36225686D01*
X3562496Y-36177025D01*
X3562494Y-36177024D01*
X3562491Y-36177023D01*
X3414657Y-36098005D01*
X3285076Y-35991659D01*
X3178730Y-35862078D01*
X3099712Y-35714244D01*
X3051048Y-35553821D01*
X3034618Y-35387000D01*
X3051048Y-35220179D01*
X3099712Y-35059756D01*
X3178730Y-34911922D01*
X3285076Y-34782341D01*
X3414657Y-34675995D01*
X3562491Y-34596977D01*
X3562494Y-34596976D01*
X3562496Y-34596975D01*
X3722910Y-34548314D01*
X3722911Y-34548314D01*
X3722914Y-34548313D01*
X3847931Y-34536000D01*
X3931539Y-34536000D01*
X4056556Y-34548313D01*
X4056556Y-34548313D01*
G37*
G36*
X-3563444Y-34548313D02*
X-3563441Y-34548314D01*
X-3563440Y-34548314D01*
X-3403026Y-34596975D01*
X-3403024Y-34596976D01*
X-3403021Y-34596977D01*
X-3255187Y-34675995D01*
X-3125606Y-34782341D01*
X-3019260Y-34911922D01*
X-2940242Y-35059756D01*
X-2891578Y-35220179D01*
X-2875148Y-35387000D01*
X-2891578Y-35553821D01*
X-2940242Y-35714244D01*
X-3019260Y-35862078D01*
X-3125606Y-35991659D01*
X-3255187Y-36098005D01*
X-3403021Y-36177023D01*
X-3403024Y-36177024D01*
X-3403026Y-36177025D01*
X-3563440Y-36225686D01*
X-3563441Y-36225686D01*
X-3563444Y-36225687D01*
X-3688461Y-36238000D01*
X-3772069Y-36238000D01*
X-3897086Y-36225687D01*
X-3897089Y-36225686D01*
X-3897090Y-36225686D01*
X-4057504Y-36177025D01*
X-4057506Y-36177024D01*
X-4057509Y-36177023D01*
X-4205343Y-36098005D01*
X-4334924Y-35991659D01*
X-4441270Y-35862078D01*
X-4520288Y-35714244D01*
X-4568952Y-35553821D01*
X-4585382Y-35387000D01*
X-4568952Y-35220179D01*
X-4520288Y-35059756D01*
X-4441270Y-34911922D01*
X-4334924Y-34782341D01*
X-4205343Y-34675995D01*
X-4057509Y-34596977D01*
X-4057506Y-34596976D01*
X-4057504Y-34596975D01*
X-3897090Y-34548314D01*
X-3897089Y-34548314D01*
X-3897086Y-34548313D01*
X-3772069Y-34536000D01*
X-3688461Y-34536000D01*
X-3563444Y-34548313D01*
X-3563444Y-34548313D01*
G37*
G36*
X-3563444Y-32008313D02*
X-3563441Y-32008314D01*
X-3563440Y-32008314D01*
X-3403026Y-32056975D01*
X-3403024Y-32056976D01*
X-3403021Y-32056977D01*
X-3255187Y-32135995D01*
X-3125606Y-32242341D01*
X-3019260Y-32371922D01*
X-2940242Y-32519756D01*
X-2891578Y-32680179D01*
X-2875148Y-32847000D01*
X-2891578Y-33013821D01*
X-2891579Y-33013824D01*
X-2891579Y-33013825D01*
X-2900570Y-33043466D01*
X-2940242Y-33174244D01*
X-3019260Y-33322078D01*
X-3125606Y-33451659D01*
X-3255187Y-33558005D01*
X-3403021Y-33637023D01*
X-3403024Y-33637024D01*
X-3403026Y-33637025D01*
X-3563440Y-33685686D01*
X-3563441Y-33685686D01*
X-3563444Y-33685687D01*
X-3688461Y-33698000D01*
X-3772069Y-33698000D01*
X-3897086Y-33685687D01*
X-3897089Y-33685686D01*
X-3897090Y-33685686D01*
X-4057504Y-33637025D01*
X-4057506Y-33637024D01*
X-4057509Y-33637023D01*
X-4205343Y-33558005D01*
X-4334924Y-33451659D01*
X-4441270Y-33322078D01*
X-4520288Y-33174244D01*
X-4559959Y-33043466D01*
X-4568951Y-33013825D01*
X-4568951Y-33013824D01*
X-4568952Y-33013821D01*
X-4585382Y-32847000D01*
X-4568952Y-32680179D01*
X-4520288Y-32519756D01*
X-4441270Y-32371922D01*
X-4334924Y-32242341D01*
X-4205343Y-32135995D01*
X-4057509Y-32056977D01*
X-4057506Y-32056976D01*
X-4057504Y-32056975D01*
X-3897090Y-32008314D01*
X-3897089Y-32008314D01*
X-3897086Y-32008313D01*
X-3772069Y-31996000D01*
X-3688461Y-31996000D01*
X-3563444Y-32008313D01*
X-3563444Y-32008313D01*
G37*
G36*
X4056556Y-32008313D02*
X4056559Y-32008314D01*
X4056560Y-32008314D01*
X4216974Y-32056975D01*
X4216976Y-32056976D01*
X4216979Y-32056977D01*
X4364813Y-32135995D01*
X4494394Y-32242341D01*
X4600740Y-32371922D01*
X4679758Y-32519756D01*
X4728422Y-32680179D01*
X4744852Y-32847000D01*
X4728422Y-33013821D01*
X4728421Y-33013824D01*
X4728421Y-33013825D01*
X4719430Y-33043466D01*
X4679758Y-33174244D01*
X4600740Y-33322078D01*
X4494394Y-33451659D01*
X4364813Y-33558005D01*
X4216979Y-33637023D01*
X4216976Y-33637024D01*
X4216974Y-33637025D01*
X4056560Y-33685686D01*
X4056559Y-33685686D01*
X4056556Y-33685687D01*
X3931539Y-33698000D01*
X3847931Y-33698000D01*
X3722914Y-33685687D01*
X3722911Y-33685686D01*
X3722910Y-33685686D01*
X3562496Y-33637025D01*
X3562494Y-33637024D01*
X3562491Y-33637023D01*
X3414657Y-33558005D01*
X3285076Y-33451659D01*
X3178730Y-33322078D01*
X3099712Y-33174244D01*
X3060041Y-33043466D01*
X3051049Y-33013825D01*
X3051049Y-33013824D01*
X3051048Y-33013821D01*
X3034618Y-32847000D01*
X3051048Y-32680179D01*
X3099712Y-32519756D01*
X3178730Y-32371922D01*
X3285076Y-32242341D01*
X3414657Y-32135995D01*
X3562491Y-32056977D01*
X3562494Y-32056976D01*
X3562496Y-32056975D01*
X3722910Y-32008314D01*
X3722911Y-32008314D01*
X3722914Y-32008313D01*
X3847931Y-31996000D01*
X3931539Y-31996000D01*
X4056556Y-32008313D01*
X4056556Y-32008313D01*
G37*
G36*
X42946000Y-33544000D02*
X41044000Y-33544000D01*
X41044000Y-31642000D01*
X42946000Y-31642000D01*
X42946000Y-33544000D01*
X42946000Y-33544000D01*
G37*
G36*
X44812396Y-31678546D02*
X44985466Y-31750234D01*
X45141230Y-31854312D01*
X45273688Y-31986770D01*
X45377766Y-32142534D01*
X45449454Y-32315604D01*
X45486000Y-32499333D01*
X45486000Y-32686667D01*
X45449454Y-32870396D01*
X45377766Y-33043466D01*
X45273688Y-33199230D01*
X45141230Y-33331688D01*
X44985466Y-33435766D01*
X44812396Y-33507454D01*
X44628667Y-33544000D01*
X44441333Y-33544000D01*
X44257604Y-33507454D01*
X44084534Y-33435766D01*
X43928770Y-33331688D01*
X43796312Y-33199230D01*
X43692234Y-33043466D01*
X43620546Y-32870396D01*
X43584000Y-32686667D01*
X43584000Y-32499333D01*
X43620546Y-32315604D01*
X43692234Y-32142534D01*
X43796312Y-31986770D01*
X43928770Y-31854312D01*
X44084534Y-31750234D01*
X44257604Y-31678546D01*
X44441333Y-31642000D01*
X44628667Y-31642000D01*
X44812396Y-31678546D01*
X44812396Y-31678546D01*
G37*
G36*
X18498589Y-30561876D02*
X18597893Y-30581629D01*
X18738206Y-30639748D01*
X18864484Y-30724125D01*
X18971875Y-30831516D01*
X19056252Y-30957794D01*
X19114371Y-31098107D01*
X19144000Y-31247063D01*
X19144000Y-31398937D01*
X19114371Y-31547893D01*
X19056252Y-31688206D01*
X18971875Y-31814484D01*
X18864484Y-31921875D01*
X18738206Y-32006252D01*
X18597893Y-32064371D01*
X18498589Y-32084124D01*
X18448938Y-32094000D01*
X18297062Y-32094000D01*
X18247411Y-32084124D01*
X18148107Y-32064371D01*
X18007794Y-32006252D01*
X17881516Y-31921875D01*
X17774125Y-31814484D01*
X17689748Y-31688206D01*
X17631629Y-31547893D01*
X17602000Y-31398937D01*
X17602000Y-31247063D01*
X17631629Y-31098107D01*
X17689748Y-30957794D01*
X17774125Y-30831516D01*
X17881516Y-30724125D01*
X18007794Y-30639748D01*
X18148107Y-30581629D01*
X18247411Y-30561876D01*
X18297062Y-30552000D01*
X18448938Y-30552000D01*
X18498589Y-30561876D01*
X18498589Y-30561876D01*
G37*
G36*
X-21125411Y-30561876D02*
X-21026107Y-30581629D01*
X-20885794Y-30639748D01*
X-20759516Y-30724125D01*
X-20652125Y-30831516D01*
X-20567748Y-30957794D01*
X-20509629Y-31098107D01*
X-20480000Y-31247063D01*
X-20480000Y-31398937D01*
X-20509629Y-31547893D01*
X-20567748Y-31688206D01*
X-20652125Y-31814484D01*
X-20759516Y-31921875D01*
X-20885794Y-32006252D01*
X-21026107Y-32064371D01*
X-21125411Y-32084124D01*
X-21175062Y-32094000D01*
X-21326938Y-32094000D01*
X-21376589Y-32084124D01*
X-21475893Y-32064371D01*
X-21616206Y-32006252D01*
X-21742484Y-31921875D01*
X-21849875Y-31814484D01*
X-21934252Y-31688206D01*
X-21992371Y-31547893D01*
X-22022000Y-31398937D01*
X-22022000Y-31247063D01*
X-21992371Y-31098107D01*
X-21934252Y-30957794D01*
X-21849875Y-30831516D01*
X-21742484Y-30724125D01*
X-21616206Y-30639748D01*
X-21475893Y-30581629D01*
X-21376589Y-30561876D01*
X-21326938Y-30552000D01*
X-21175062Y-30552000D01*
X-21125411Y-30561876D01*
X-21125411Y-30561876D01*
G37*
G36*
X4056556Y-29468313D02*
X4056559Y-29468314D01*
X4056560Y-29468314D01*
X4216974Y-29516975D01*
X4216976Y-29516976D01*
X4216979Y-29516977D01*
X4364813Y-29595995D01*
X4494394Y-29702341D01*
X4600740Y-29831922D01*
X4679758Y-29979756D01*
X4728422Y-30140179D01*
X4744852Y-30307000D01*
X4728422Y-30473821D01*
X4679758Y-30634244D01*
X4600740Y-30782078D01*
X4494394Y-30911659D01*
X4364813Y-31018005D01*
X4216979Y-31097023D01*
X4216976Y-31097024D01*
X4216974Y-31097025D01*
X4056560Y-31145686D01*
X4056559Y-31145686D01*
X4056556Y-31145687D01*
X3931539Y-31158000D01*
X3847931Y-31158000D01*
X3722914Y-31145687D01*
X3722911Y-31145686D01*
X3722910Y-31145686D01*
X3562496Y-31097025D01*
X3562494Y-31097024D01*
X3562491Y-31097023D01*
X3414657Y-31018005D01*
X3285076Y-30911659D01*
X3178730Y-30782078D01*
X3099712Y-30634244D01*
X3051048Y-30473821D01*
X3034618Y-30307000D01*
X3051048Y-30140179D01*
X3099712Y-29979756D01*
X3178730Y-29831922D01*
X3285076Y-29702341D01*
X3414657Y-29595995D01*
X3562491Y-29516977D01*
X3562494Y-29516976D01*
X3562496Y-29516975D01*
X3722910Y-29468314D01*
X3722911Y-29468314D01*
X3722914Y-29468313D01*
X3847931Y-29456000D01*
X3931539Y-29456000D01*
X4056556Y-29468313D01*
X4056556Y-29468313D01*
G37*
G36*
X-3563444Y-29468313D02*
X-3563441Y-29468314D01*
X-3563440Y-29468314D01*
X-3403026Y-29516975D01*
X-3403024Y-29516976D01*
X-3403021Y-29516977D01*
X-3255187Y-29595995D01*
X-3125606Y-29702341D01*
X-3019260Y-29831922D01*
X-2940242Y-29979756D01*
X-2891578Y-30140179D01*
X-2875148Y-30307000D01*
X-2891578Y-30473821D01*
X-2940242Y-30634244D01*
X-3019260Y-30782078D01*
X-3125606Y-30911659D01*
X-3255187Y-31018005D01*
X-3403021Y-31097023D01*
X-3403024Y-31097024D01*
X-3403026Y-31097025D01*
X-3563440Y-31145686D01*
X-3563441Y-31145686D01*
X-3563444Y-31145687D01*
X-3688461Y-31158000D01*
X-3772069Y-31158000D01*
X-3897086Y-31145687D01*
X-3897089Y-31145686D01*
X-3897090Y-31145686D01*
X-4057504Y-31097025D01*
X-4057506Y-31097024D01*
X-4057509Y-31097023D01*
X-4205343Y-31018005D01*
X-4334924Y-30911659D01*
X-4441270Y-30782078D01*
X-4520288Y-30634244D01*
X-4568952Y-30473821D01*
X-4585382Y-30307000D01*
X-4568952Y-30140179D01*
X-4520288Y-29979756D01*
X-4441270Y-29831922D01*
X-4334924Y-29702341D01*
X-4205343Y-29595995D01*
X-4057509Y-29516977D01*
X-4057506Y-29516976D01*
X-4057504Y-29516975D01*
X-3897090Y-29468314D01*
X-3897089Y-29468314D01*
X-3897086Y-29468313D01*
X-3772069Y-29456000D01*
X-3688461Y-29456000D01*
X-3563444Y-29468313D01*
X-3563444Y-29468313D01*
G37*
G36*
X15958589Y-28021876D02*
X16057893Y-28041629D01*
X16198206Y-28099748D01*
X16324484Y-28184125D01*
X16431875Y-28291516D01*
X16516252Y-28417794D01*
X16574371Y-28558107D01*
X16604000Y-28707063D01*
X16604000Y-28858937D01*
X16574371Y-29007893D01*
X16516252Y-29148206D01*
X16431875Y-29274484D01*
X16324484Y-29381875D01*
X16198206Y-29466252D01*
X16057893Y-29524371D01*
X15958589Y-29544124D01*
X15908938Y-29554000D01*
X15757062Y-29554000D01*
X15707411Y-29544124D01*
X15608107Y-29524371D01*
X15467794Y-29466252D01*
X15341516Y-29381875D01*
X15234125Y-29274484D01*
X15149748Y-29148206D01*
X15091629Y-29007893D01*
X15062000Y-28858937D01*
X15062000Y-28707063D01*
X15091629Y-28558107D01*
X15149748Y-28417794D01*
X15234125Y-28291516D01*
X15341516Y-28184125D01*
X15467794Y-28099748D01*
X15608107Y-28041629D01*
X15707411Y-28021876D01*
X15757062Y-28012000D01*
X15908938Y-28012000D01*
X15958589Y-28021876D01*
X15958589Y-28021876D01*
G37*
G36*
X-23665411Y-28021876D02*
X-23566107Y-28041629D01*
X-23425794Y-28099748D01*
X-23299516Y-28184125D01*
X-23192125Y-28291516D01*
X-23107748Y-28417794D01*
X-23049629Y-28558107D01*
X-23020000Y-28707063D01*
X-23020000Y-28858937D01*
X-23049629Y-29007893D01*
X-23107748Y-29148206D01*
X-23192125Y-29274484D01*
X-23299516Y-29381875D01*
X-23425794Y-29466252D01*
X-23566107Y-29524371D01*
X-23665411Y-29544124D01*
X-23715062Y-29554000D01*
X-23866938Y-29554000D01*
X-23916589Y-29544124D01*
X-24015893Y-29524371D01*
X-24156206Y-29466252D01*
X-24282484Y-29381875D01*
X-24389875Y-29274484D01*
X-24474252Y-29148206D01*
X-24532371Y-29007893D01*
X-24562000Y-28858937D01*
X-24562000Y-28707063D01*
X-24532371Y-28558107D01*
X-24474252Y-28417794D01*
X-24389875Y-28291516D01*
X-24282484Y-28184125D01*
X-24156206Y-28099748D01*
X-24015893Y-28041629D01*
X-23916589Y-28021876D01*
X-23866938Y-28012000D01*
X-23715062Y-28012000D01*
X-23665411Y-28021876D01*
X-23665411Y-28021876D01*
G37*
G36*
X4056556Y-26928313D02*
X4056559Y-26928314D01*
X4056560Y-26928314D01*
X4216974Y-26976975D01*
X4216976Y-26976976D01*
X4216979Y-26976977D01*
X4364813Y-27055995D01*
X4494394Y-27162341D01*
X4600740Y-27291922D01*
X4679758Y-27439756D01*
X4728422Y-27600179D01*
X4744852Y-27767000D01*
X4728422Y-27933821D01*
X4679758Y-28094244D01*
X4600740Y-28242078D01*
X4494394Y-28371659D01*
X4364813Y-28478005D01*
X4216979Y-28557023D01*
X4216976Y-28557024D01*
X4216974Y-28557025D01*
X4056560Y-28605686D01*
X4056559Y-28605686D01*
X4056556Y-28605687D01*
X3931539Y-28618000D01*
X3847931Y-28618000D01*
X3722914Y-28605687D01*
X3722911Y-28605686D01*
X3722910Y-28605686D01*
X3562496Y-28557025D01*
X3562494Y-28557024D01*
X3562491Y-28557023D01*
X3414657Y-28478005D01*
X3285076Y-28371659D01*
X3178730Y-28242078D01*
X3099712Y-28094244D01*
X3051048Y-27933821D01*
X3034618Y-27767000D01*
X3051048Y-27600179D01*
X3099712Y-27439756D01*
X3178730Y-27291922D01*
X3285076Y-27162341D01*
X3414657Y-27055995D01*
X3562491Y-26976977D01*
X3562494Y-26976976D01*
X3562496Y-26976975D01*
X3722910Y-26928314D01*
X3722911Y-26928314D01*
X3722914Y-26928313D01*
X3847931Y-26916000D01*
X3931539Y-26916000D01*
X4056556Y-26928313D01*
X4056556Y-26928313D01*
G37*
G36*
X-2879265Y-28618000D02*
X-4581265Y-28618000D01*
X-4581265Y-26916000D01*
X-2879265Y-26916000D01*
X-2879265Y-28618000D01*
X-2879265Y-28618000D01*
G37*
G36*
X18476583Y-25477499D02*
X18597893Y-25501629D01*
X18738206Y-25559748D01*
X18864484Y-25644125D01*
X18971875Y-25751516D01*
X19056252Y-25877794D01*
X19114371Y-26018107D01*
X19144000Y-26167063D01*
X19144000Y-26318937D01*
X19114371Y-26467893D01*
X19056252Y-26608206D01*
X18971875Y-26734484D01*
X18864484Y-26841875D01*
X18738206Y-26926252D01*
X18597893Y-26984371D01*
X18498589Y-27004124D01*
X18448938Y-27014000D01*
X18297062Y-27014000D01*
X18247411Y-27004124D01*
X18148107Y-26984371D01*
X18007794Y-26926252D01*
X17881516Y-26841875D01*
X17774125Y-26734484D01*
X17689748Y-26608206D01*
X17631629Y-26467893D01*
X17602000Y-26318937D01*
X17602000Y-26167063D01*
X17631629Y-26018107D01*
X17689748Y-25877794D01*
X17774125Y-25751516D01*
X17881516Y-25644125D01*
X18007794Y-25559748D01*
X18148107Y-25501629D01*
X18269417Y-25477499D01*
X18297062Y-25472000D01*
X18448938Y-25472000D01*
X18476583Y-25477499D01*
X18476583Y-25477499D01*
G37*
G36*
X-21147417Y-25477499D02*
X-21026107Y-25501629D01*
X-20885794Y-25559748D01*
X-20759516Y-25644125D01*
X-20652125Y-25751516D01*
X-20567748Y-25877794D01*
X-20509629Y-26018107D01*
X-20480000Y-26167063D01*
X-20480000Y-26318937D01*
X-20509629Y-26467893D01*
X-20567748Y-26608206D01*
X-20652125Y-26734484D01*
X-20759516Y-26841875D01*
X-20885794Y-26926252D01*
X-21026107Y-26984371D01*
X-21125411Y-27004124D01*
X-21175062Y-27014000D01*
X-21326938Y-27014000D01*
X-21376589Y-27004124D01*
X-21475893Y-26984371D01*
X-21616206Y-26926252D01*
X-21742484Y-26841875D01*
X-21849875Y-26734484D01*
X-21934252Y-26608206D01*
X-21992371Y-26467893D01*
X-22022000Y-26318937D01*
X-22022000Y-26167063D01*
X-21992371Y-26018107D01*
X-21934252Y-25877794D01*
X-21849875Y-25751516D01*
X-21742484Y-25644125D01*
X-21616206Y-25559748D01*
X-21475893Y-25501629D01*
X-21354583Y-25477499D01*
X-21326938Y-25472000D01*
X-21175062Y-25472000D01*
X-21147417Y-25477499D01*
X-21147417Y-25477499D01*
G37*
G36*
X43756142Y-24064242D02*
X43904102Y-24125530D01*
X44037258Y-24214502D01*
X44150498Y-24327742D01*
X44239470Y-24460898D01*
X44300758Y-24608858D01*
X44332000Y-24765925D01*
X44332000Y-24926075D01*
X44300758Y-25083142D01*
X44295936Y-25094782D01*
X44239471Y-25231100D01*
X44150499Y-25364257D01*
X44037257Y-25477499D01*
X43971130Y-25521683D01*
X43904102Y-25566470D01*
X43756142Y-25627758D01*
X43599075Y-25659000D01*
X43438925Y-25659000D01*
X43281858Y-25627758D01*
X43133898Y-25566470D01*
X43066870Y-25521683D01*
X43000743Y-25477499D01*
X42887501Y-25364257D01*
X42798529Y-25231100D01*
X42742064Y-25094782D01*
X42737242Y-25083142D01*
X42706000Y-24926075D01*
X42706000Y-24765925D01*
X42737242Y-24608858D01*
X42798530Y-24460898D01*
X42887502Y-24327742D01*
X43000742Y-24214502D01*
X43133898Y-24125530D01*
X43281858Y-24064242D01*
X43438925Y-24033000D01*
X43599075Y-24033000D01*
X43756142Y-24064242D01*
X43756142Y-24064242D01*
G37*
G36*
X72177978Y-22324293D02*
X72311627Y-22364835D01*
X72434782Y-22430662D01*
X72542739Y-22519261D01*
X72631338Y-22627218D01*
X72697165Y-22750373D01*
X72737707Y-22884022D01*
X72752000Y-23029140D01*
X72752000Y-24692860D01*
X72737707Y-24837978D01*
X72697165Y-24971627D01*
X72631338Y-25094782D01*
X72542739Y-25202739D01*
X72434782Y-25291338D01*
X72311627Y-25357165D01*
X72177978Y-25397707D01*
X72032860Y-25412000D01*
X69869140Y-25412000D01*
X69724022Y-25397707D01*
X69590373Y-25357165D01*
X69467218Y-25291338D01*
X69359261Y-25202739D01*
X69270662Y-25094782D01*
X69204835Y-24971627D01*
X69164293Y-24837978D01*
X69150000Y-24692860D01*
X69150000Y-23029140D01*
X69164293Y-22884022D01*
X69204835Y-22750373D01*
X69270662Y-22627218D01*
X69359261Y-22519261D01*
X69467218Y-22430662D01*
X69590373Y-22364835D01*
X69724022Y-22324293D01*
X69869140Y-22310000D01*
X72032860Y-22310000D01*
X72177978Y-22324293D01*
X72177978Y-22324293D01*
G37*
G36*
X43756142Y-21524242D02*
X43904102Y-21585530D01*
X44037258Y-21674502D01*
X44150498Y-21787742D01*
X44239470Y-21920898D01*
X44300758Y-22068858D01*
X44332000Y-22225925D01*
X44332000Y-22386075D01*
X44300758Y-22543142D01*
X44239470Y-22691102D01*
X44150498Y-22824258D01*
X44037258Y-22937498D01*
X43904102Y-23026470D01*
X43756142Y-23087758D01*
X43599075Y-23119000D01*
X43438925Y-23119000D01*
X43281858Y-23087758D01*
X43133898Y-23026470D01*
X43000742Y-22937498D01*
X42887502Y-22824258D01*
X42798530Y-22691102D01*
X42737242Y-22543142D01*
X42706000Y-22386075D01*
X42706000Y-22225925D01*
X42737242Y-22068858D01*
X42798530Y-21920898D01*
X42887502Y-21787742D01*
X43000742Y-21674502D01*
X43133898Y-21585530D01*
X43281858Y-21524242D01*
X43438925Y-21493000D01*
X43599075Y-21493000D01*
X43756142Y-21524242D01*
X43756142Y-21524242D01*
G37*
G36*
X76777366Y-19076695D02*
X76934458Y-19124348D01*
X77079230Y-19201731D01*
X77206128Y-19305872D01*
X77310269Y-19432770D01*
X77387652Y-19577542D01*
X77435305Y-19734634D01*
X77452000Y-19904140D01*
X77452000Y-21817860D01*
X77435305Y-21987366D01*
X77387652Y-22144458D01*
X77310269Y-22289230D01*
X77206128Y-22416128D01*
X77079230Y-22520269D01*
X76934458Y-22597652D01*
X76777366Y-22645305D01*
X76607860Y-22662000D01*
X74694140Y-22662000D01*
X74524634Y-22645305D01*
X74367542Y-22597652D01*
X74222770Y-22520269D01*
X74095872Y-22416128D01*
X73991731Y-22289230D01*
X73914348Y-22144458D01*
X73866695Y-21987366D01*
X73850000Y-21817860D01*
X73850000Y-19904140D01*
X73866695Y-19734634D01*
X73914348Y-19577542D01*
X73991731Y-19432770D01*
X74095872Y-19305872D01*
X74222770Y-19201731D01*
X74367542Y-19124348D01*
X74524634Y-19076695D01*
X74694140Y-19060000D01*
X76607860Y-19060000D01*
X76777366Y-19076695D01*
X76777366Y-19076695D01*
G37*
G36*
X55760669Y-17950686D02*
X55937058Y-17968059D01*
X56163385Y-18036714D01*
X56276549Y-18071042D01*
X56589425Y-18238279D01*
X56863661Y-18463339D01*
X57088721Y-18737575D01*
X57255958Y-19050451D01*
X57263919Y-19076695D01*
X57358941Y-19389942D01*
X57393714Y-19743000D01*
X57358941Y-20096058D01*
X57301851Y-20284258D01*
X57255958Y-20435549D01*
X57088721Y-20748425D01*
X56863661Y-21022661D01*
X56589425Y-21247721D01*
X56276549Y-21414958D01*
X56163385Y-21449286D01*
X55937058Y-21517941D01*
X55760669Y-21535314D01*
X55672476Y-21544000D01*
X55495524Y-21544000D01*
X55407331Y-21535314D01*
X55230942Y-21517941D01*
X55004615Y-21449286D01*
X54891451Y-21414958D01*
X54578575Y-21247721D01*
X54304339Y-21022661D01*
X54079279Y-20748425D01*
X53912042Y-20435549D01*
X53866149Y-20284258D01*
X53809059Y-20096058D01*
X53774286Y-19743000D01*
X53809059Y-19389942D01*
X53904081Y-19076695D01*
X53912042Y-19050451D01*
X54079279Y-18737575D01*
X54304339Y-18463339D01*
X54578575Y-18238279D01*
X54891451Y-18071042D01*
X55004615Y-18036714D01*
X55230942Y-17968059D01*
X55407331Y-17950686D01*
X55495524Y-17942000D01*
X55672476Y-17942000D01*
X55760669Y-17950686D01*
X55760669Y-17950686D01*
G37*
G36*
X43756142Y-18984242D02*
X43904102Y-19045530D01*
X43911468Y-19050452D01*
X44028345Y-19128546D01*
X44037258Y-19134502D01*
X44150498Y-19247742D01*
X44239470Y-19380898D01*
X44300758Y-19528858D01*
X44332000Y-19685925D01*
X44332000Y-19846075D01*
X44300758Y-20003142D01*
X44239470Y-20151102D01*
X44150498Y-20284258D01*
X44037258Y-20397498D01*
X43904102Y-20486470D01*
X43756142Y-20547758D01*
X43599075Y-20579000D01*
X43438925Y-20579000D01*
X43281858Y-20547758D01*
X43133898Y-20486470D01*
X43000742Y-20397498D01*
X42887502Y-20284258D01*
X42798530Y-20151102D01*
X42737242Y-20003142D01*
X42706000Y-19846075D01*
X42706000Y-19685925D01*
X42737242Y-19528858D01*
X42798530Y-19380898D01*
X42887502Y-19247742D01*
X43000742Y-19134502D01*
X43009656Y-19128546D01*
X43126532Y-19050452D01*
X43133898Y-19045530D01*
X43281858Y-18984242D01*
X43438925Y-18953000D01*
X43599075Y-18953000D01*
X43756142Y-18984242D01*
X43756142Y-18984242D01*
G37*
G36*
X72752000Y-19662000D02*
X69150000Y-19662000D01*
X69150000Y-16060000D01*
X72752000Y-16060000D01*
X72752000Y-19662000D01*
X72752000Y-19662000D01*
G37*
G36*
X9858228Y-10438703D02*
X10013100Y-10502853D01*
X10152481Y-10595985D01*
X10271015Y-10714519D01*
X10364147Y-10853900D01*
X10428297Y-11008772D01*
X10461000Y-11173184D01*
X10461000Y-11340816D01*
X10428297Y-11505228D01*
X10364147Y-11660100D01*
X10271015Y-11799481D01*
X10152481Y-11918015D01*
X10013100Y-12011147D01*
X9858228Y-12075297D01*
X9693816Y-12108000D01*
X9526184Y-12108000D01*
X9361772Y-12075297D01*
X9206900Y-12011147D01*
X9067519Y-11918015D01*
X8948985Y-11799481D01*
X8855853Y-11660100D01*
X8791703Y-11505228D01*
X8759000Y-11340816D01*
X8759000Y-11173184D01*
X8791703Y-11008772D01*
X8855853Y-10853900D01*
X8948985Y-10714519D01*
X9067519Y-10595985D01*
X9206900Y-10502853D01*
X9361772Y-10438703D01*
X9526184Y-10406000D01*
X9693816Y-10406000D01*
X9858228Y-10438703D01*
X9858228Y-10438703D01*
G37*
G36*
X-383179Y-10418313D02*
X-383176Y-10418314D01*
X-383175Y-10418314D01*
X-222761Y-10466975D01*
X-222759Y-10466976D01*
X-222756Y-10466977D01*
X-74922Y-10545995D01*
X54659Y-10652341D01*
X161005Y-10781922D01*
X240023Y-10929756D01*
X240024Y-10929759D01*
X240025Y-10929761D01*
X288686Y-11090175D01*
X288687Y-11090179D01*
X305117Y-11257000D01*
X288687Y-11423821D01*
X288686Y-11423824D01*
X288686Y-11423825D01*
X263993Y-11505228D01*
X240023Y-11584244D01*
X161005Y-11732078D01*
X54659Y-11861659D01*
X-74922Y-11968005D01*
X-222756Y-12047023D01*
X-222759Y-12047024D01*
X-222761Y-12047025D01*
X-383175Y-12095686D01*
X-383176Y-12095686D01*
X-383179Y-12095687D01*
X-508196Y-12108000D01*
X-591804Y-12108000D01*
X-716821Y-12095687D01*
X-716824Y-12095686D01*
X-716825Y-12095686D01*
X-877239Y-12047025D01*
X-877241Y-12047024D01*
X-877244Y-12047023D01*
X-1025078Y-11968005D01*
X-1154659Y-11861659D01*
X-1261005Y-11732078D01*
X-1340023Y-11584244D01*
X-1363992Y-11505228D01*
X-1388686Y-11423825D01*
X-1388686Y-11423824D01*
X-1388687Y-11423821D01*
X-1405117Y-11257000D01*
X-1388687Y-11090179D01*
X-1388686Y-11090175D01*
X-1340025Y-10929761D01*
X-1340024Y-10929759D01*
X-1340023Y-10929756D01*
X-1261005Y-10781922D01*
X-1154659Y-10652341D01*
X-1025078Y-10545995D01*
X-877244Y-10466977D01*
X-877241Y-10466976D01*
X-877239Y-10466975D01*
X-716825Y-10418314D01*
X-716824Y-10418314D01*
X-716821Y-10418313D01*
X-591804Y-10406000D01*
X-508196Y-10406000D01*
X-383179Y-10418313D01*
X-383179Y-10418313D01*
G37*
G36*
X-14779772Y-7644703D02*
X-14624900Y-7708853D01*
X-14485519Y-7801985D01*
X-14366985Y-7920519D01*
X-14273853Y-8059900D01*
X-14209703Y-8214772D01*
X-14177000Y-8379184D01*
X-14177000Y-8546816D01*
X-14209703Y-8711228D01*
X-14273853Y-8866100D01*
X-14366985Y-9005481D01*
X-14485519Y-9124015D01*
X-14624900Y-9217147D01*
X-14779772Y-9281297D01*
X-14944184Y-9314000D01*
X-15111816Y-9314000D01*
X-15276228Y-9281297D01*
X-15431100Y-9217147D01*
X-15570481Y-9124015D01*
X-15689015Y-9005481D01*
X-15782147Y-8866100D01*
X-15846297Y-8711228D01*
X-15879000Y-8546816D01*
X-15879000Y-8379184D01*
X-15846297Y-8214772D01*
X-15782147Y-8059900D01*
X-15689015Y-7920519D01*
X-15570481Y-7801985D01*
X-15431100Y-7708853D01*
X-15276228Y-7644703D01*
X-15111816Y-7612000D01*
X-14944184Y-7612000D01*
X-14779772Y-7644703D01*
X-14779772Y-7644703D01*
G37*
G36*
X-17279772Y-7644703D02*
X-17124900Y-7708853D01*
X-16985519Y-7801985D01*
X-16866985Y-7920519D01*
X-16773853Y-8059900D01*
X-16709703Y-8214772D01*
X-16677000Y-8379184D01*
X-16677000Y-8546816D01*
X-16709703Y-8711228D01*
X-16773853Y-8866100D01*
X-16866985Y-9005481D01*
X-16985519Y-9124015D01*
X-17124900Y-9217147D01*
X-17279772Y-9281297D01*
X-17444184Y-9314000D01*
X-17611816Y-9314000D01*
X-17776228Y-9281297D01*
X-17931100Y-9217147D01*
X-18070481Y-9124015D01*
X-18189015Y-9005481D01*
X-18282147Y-8866100D01*
X-18346297Y-8711228D01*
X-18379000Y-8546816D01*
X-18379000Y-8379184D01*
X-18346297Y-8214772D01*
X-18282147Y-8059900D01*
X-18189015Y-7920519D01*
X-18070481Y-7801985D01*
X-17931100Y-7708853D01*
X-17776228Y-7644703D01*
X-17611816Y-7612000D01*
X-17444184Y-7612000D01*
X-17279772Y-7644703D01*
X-17279772Y-7644703D01*
G37*
G36*
X9858228Y-7136703D02*
X10013100Y-7200853D01*
X10152481Y-7293985D01*
X10271015Y-7412519D01*
X10364147Y-7551900D01*
X10428297Y-7706772D01*
X10461000Y-7871184D01*
X10461000Y-8038816D01*
X10428297Y-8203228D01*
X10364147Y-8358100D01*
X10271015Y-8497481D01*
X10152481Y-8616015D01*
X10013100Y-8709147D01*
X9858228Y-8773297D01*
X9693816Y-8806000D01*
X9526184Y-8806000D01*
X9361772Y-8773297D01*
X9206900Y-8709147D01*
X9067519Y-8616015D01*
X8948985Y-8497481D01*
X8855853Y-8358100D01*
X8791703Y-8203228D01*
X8759000Y-8038816D01*
X8759000Y-7871184D01*
X8791703Y-7706772D01*
X8855853Y-7551900D01*
X8948985Y-7412519D01*
X9067519Y-7293985D01*
X9206900Y-7200853D01*
X9361772Y-7136703D01*
X9526184Y-7104000D01*
X9693816Y-7104000D01*
X9858228Y-7136703D01*
X9858228Y-7136703D01*
G37*
G36*
X-383179Y-7116313D02*
X-383176Y-7116314D01*
X-383175Y-7116314D01*
X-222761Y-7164975D01*
X-222759Y-7164976D01*
X-222756Y-7164977D01*
X-74922Y-7243995D01*
X54659Y-7350341D01*
X161005Y-7479922D01*
X240023Y-7627756D01*
X240024Y-7627759D01*
X240025Y-7627761D01*
X264624Y-7708853D01*
X288687Y-7788179D01*
X305117Y-7955000D01*
X288687Y-8121821D01*
X288686Y-8121824D01*
X288686Y-8121825D01*
X260491Y-8214772D01*
X240023Y-8282244D01*
X161005Y-8430078D01*
X54659Y-8559659D01*
X-74922Y-8666005D01*
X-222756Y-8745023D01*
X-222759Y-8745024D01*
X-222761Y-8745025D01*
X-383175Y-8793686D01*
X-383176Y-8793686D01*
X-383179Y-8793687D01*
X-508196Y-8806000D01*
X-591804Y-8806000D01*
X-716821Y-8793687D01*
X-716824Y-8793686D01*
X-716825Y-8793686D01*
X-877239Y-8745025D01*
X-877241Y-8745024D01*
X-877244Y-8745023D01*
X-1025078Y-8666005D01*
X-1154659Y-8559659D01*
X-1261005Y-8430078D01*
X-1340023Y-8282244D01*
X-1360490Y-8214772D01*
X-1388686Y-8121825D01*
X-1388686Y-8121824D01*
X-1388687Y-8121821D01*
X-1405117Y-7955000D01*
X-1388687Y-7788179D01*
X-1364624Y-7708853D01*
X-1340025Y-7627761D01*
X-1340024Y-7627759D01*
X-1340023Y-7627756D01*
X-1261005Y-7479922D01*
X-1154659Y-7350341D01*
X-1025078Y-7243995D01*
X-877244Y-7164977D01*
X-877241Y-7164976D01*
X-877239Y-7164975D01*
X-716825Y-7116314D01*
X-716824Y-7116314D01*
X-716821Y-7116313D01*
X-591804Y-7104000D01*
X-508196Y-7104000D01*
X-383179Y-7116313D01*
X-383179Y-7116313D01*
G37*
G36*
X-13589772Y-4596703D02*
X-13434900Y-4660853D01*
X-13295519Y-4753985D01*
X-13176985Y-4872519D01*
X-13083853Y-5011900D01*
X-13019703Y-5166772D01*
X-12987000Y-5331184D01*
X-12987000Y-5498816D01*
X-13019703Y-5663228D01*
X-13083853Y-5818100D01*
X-13176985Y-5957481D01*
X-13295519Y-6076015D01*
X-13434900Y-6169147D01*
X-13589772Y-6233297D01*
X-13754184Y-6266000D01*
X-13921816Y-6266000D01*
X-14086228Y-6233297D01*
X-14241100Y-6169147D01*
X-14380481Y-6076015D01*
X-14499015Y-5957481D01*
X-14592147Y-5818100D01*
X-14656297Y-5663228D01*
X-14689000Y-5498816D01*
X-14689000Y-5331184D01*
X-14656297Y-5166772D01*
X-14592147Y-5011900D01*
X-14499015Y-4872519D01*
X-14380481Y-4753985D01*
X-14241100Y-4660853D01*
X-14086228Y-4596703D01*
X-13921816Y-4564000D01*
X-13754184Y-4564000D01*
X-13589772Y-4596703D01*
X-13589772Y-4596703D01*
G37*
G36*
X-18589772Y-4596703D02*
X-18434900Y-4660853D01*
X-18295519Y-4753985D01*
X-18176985Y-4872519D01*
X-18083853Y-5011900D01*
X-18019703Y-5166772D01*
X-17987000Y-5331184D01*
X-17987000Y-5498816D01*
X-18019703Y-5663228D01*
X-18083853Y-5818100D01*
X-18176985Y-5957481D01*
X-18295519Y-6076015D01*
X-18434900Y-6169147D01*
X-18589772Y-6233297D01*
X-18754184Y-6266000D01*
X-18921816Y-6266000D01*
X-19086228Y-6233297D01*
X-19241100Y-6169147D01*
X-19380481Y-6076015D01*
X-19499015Y-5957481D01*
X-19592147Y-5818100D01*
X-19656297Y-5663228D01*
X-19689000Y-5498816D01*
X-19689000Y-5331184D01*
X-19656297Y-5166772D01*
X-19592147Y-5011900D01*
X-19499015Y-4872519D01*
X-19380481Y-4753985D01*
X-19241100Y-4660853D01*
X-19086228Y-4596703D01*
X-18921816Y-4564000D01*
X-18754184Y-4564000D01*
X-18589772Y-4596703D01*
X-18589772Y-4596703D01*
G37*
G36*
X9858228Y-3834703D02*
X10013100Y-3898853D01*
X10152481Y-3991985D01*
X10271015Y-4110519D01*
X10364147Y-4249900D01*
X10428297Y-4404772D01*
X10461000Y-4569184D01*
X10461000Y-4736816D01*
X10428297Y-4901228D01*
X10364147Y-5056100D01*
X10271015Y-5195481D01*
X10152481Y-5314015D01*
X10013100Y-5407147D01*
X9858228Y-5471297D01*
X9693816Y-5504000D01*
X9526184Y-5504000D01*
X9361772Y-5471297D01*
X9206900Y-5407147D01*
X9067519Y-5314015D01*
X8948985Y-5195481D01*
X8855853Y-5056100D01*
X8791703Y-4901228D01*
X8759000Y-4736816D01*
X8759000Y-4569184D01*
X8791703Y-4404772D01*
X8855853Y-4249900D01*
X8948985Y-4110519D01*
X9067519Y-3991985D01*
X9206900Y-3898853D01*
X9361772Y-3834703D01*
X9526184Y-3802000D01*
X9693816Y-3802000D01*
X9858228Y-3834703D01*
X9858228Y-3834703D01*
G37*
G36*
X-383179Y-3814313D02*
X-383176Y-3814314D01*
X-383175Y-3814314D01*
X-222761Y-3862975D01*
X-222759Y-3862976D01*
X-222756Y-3862977D01*
X-74922Y-3941995D01*
X54659Y-4048341D01*
X161005Y-4177922D01*
X240023Y-4325756D01*
X240024Y-4325759D01*
X240025Y-4325761D01*
X288686Y-4486175D01*
X288687Y-4486179D01*
X305117Y-4653000D01*
X288687Y-4819821D01*
X288686Y-4819824D01*
X288686Y-4819825D01*
X263993Y-4901228D01*
X240023Y-4980244D01*
X161005Y-5128078D01*
X54659Y-5257659D01*
X-74922Y-5364005D01*
X-222756Y-5443023D01*
X-222759Y-5443024D01*
X-222761Y-5443025D01*
X-383175Y-5491686D01*
X-383176Y-5491686D01*
X-383179Y-5491687D01*
X-508196Y-5504000D01*
X-591804Y-5504000D01*
X-716821Y-5491687D01*
X-716824Y-5491686D01*
X-716825Y-5491686D01*
X-877239Y-5443025D01*
X-877241Y-5443024D01*
X-877244Y-5443023D01*
X-1025078Y-5364005D01*
X-1154659Y-5257659D01*
X-1261005Y-5128078D01*
X-1340023Y-4980244D01*
X-1363992Y-4901228D01*
X-1388686Y-4819825D01*
X-1388686Y-4819824D01*
X-1388687Y-4819821D01*
X-1405117Y-4653000D01*
X-1388687Y-4486179D01*
X-1388686Y-4486175D01*
X-1340025Y-4325761D01*
X-1340024Y-4325759D01*
X-1340023Y-4325756D01*
X-1261005Y-4177922D01*
X-1154659Y-4048341D01*
X-1025078Y-3941995D01*
X-877244Y-3862977D01*
X-877241Y-3862976D01*
X-877239Y-3862975D01*
X-716825Y-3814314D01*
X-716824Y-3814314D01*
X-716821Y-3814313D01*
X-591804Y-3802000D01*
X-508196Y-3802000D01*
X-383179Y-3814313D01*
X-383179Y-3814313D01*
G37*
G36*
X9858228Y-786703D02*
X10013100Y-850853D01*
X10152481Y-943985D01*
X10271015Y-1062519D01*
X10364147Y-1201900D01*
X10428297Y-1356772D01*
X10461000Y-1521184D01*
X10461000Y-1688816D01*
X10428297Y-1853228D01*
X10364147Y-2008100D01*
X10271015Y-2147481D01*
X10152481Y-2266015D01*
X10013100Y-2359147D01*
X9858228Y-2423297D01*
X9693816Y-2456000D01*
X9526184Y-2456000D01*
X9361772Y-2423297D01*
X9206900Y-2359147D01*
X9067519Y-2266015D01*
X8948985Y-2147481D01*
X8855853Y-2008100D01*
X8791703Y-1853228D01*
X8759000Y-1688816D01*
X8759000Y-1521184D01*
X8791703Y-1356772D01*
X8855853Y-1201900D01*
X8948985Y-1062519D01*
X9067519Y-943985D01*
X9206900Y-850853D01*
X9361772Y-786703D01*
X9526184Y-754000D01*
X9693816Y-754000D01*
X9858228Y-786703D01*
X9858228Y-786703D01*
G37*
G36*
X-383179Y-766313D02*
X-383176Y-766314D01*
X-383175Y-766314D01*
X-222761Y-814975D01*
X-222759Y-814976D01*
X-222756Y-814977D01*
X-74922Y-893995D01*
X54659Y-1000341D01*
X161005Y-1129922D01*
X240023Y-1277756D01*
X240024Y-1277759D01*
X240025Y-1277761D01*
X274722Y-1392142D01*
X288687Y-1438179D01*
X305117Y-1605000D01*
X288687Y-1771821D01*
X288686Y-1771824D01*
X288686Y-1771825D01*
X257246Y-1875470D01*
X240023Y-1932244D01*
X161005Y-2080078D01*
X54659Y-2209659D01*
X-74922Y-2316005D01*
X-222756Y-2395023D01*
X-222759Y-2395024D01*
X-222761Y-2395025D01*
X-383175Y-2443686D01*
X-383176Y-2443686D01*
X-383179Y-2443687D01*
X-508196Y-2456000D01*
X-591804Y-2456000D01*
X-716821Y-2443687D01*
X-716824Y-2443686D01*
X-716825Y-2443686D01*
X-877239Y-2395025D01*
X-877241Y-2395024D01*
X-877244Y-2395023D01*
X-1025078Y-2316005D01*
X-1154659Y-2209659D01*
X-1261005Y-2080078D01*
X-1340023Y-1932244D01*
X-1357245Y-1875470D01*
X-1388686Y-1771825D01*
X-1388686Y-1771824D01*
X-1388687Y-1771821D01*
X-1405117Y-1605000D01*
X-1388687Y-1438179D01*
X-1374722Y-1392142D01*
X-1340025Y-1277761D01*
X-1340024Y-1277759D01*
X-1340023Y-1277756D01*
X-1261005Y-1129922D01*
X-1154659Y-1000341D01*
X-1025078Y-893995D01*
X-877244Y-814977D01*
X-877241Y-814976D01*
X-877239Y-814975D01*
X-716825Y-766314D01*
X-716824Y-766314D01*
X-716821Y-766313D01*
X-591804Y-754000D01*
X-508196Y-754000D01*
X-383179Y-766313D01*
X-383179Y-766313D01*
G37*
G36*
X-50419858Y-373242D02*
X-50271898Y-434530D01*
X-50138742Y-523502D01*
X-50025502Y-636742D01*
X-49936530Y-769898D01*
X-49875242Y-917858D01*
X-49844000Y-1074925D01*
X-49844000Y-1235075D01*
X-49875242Y-1392142D01*
X-49904220Y-1462100D01*
X-49936529Y-1540100D01*
X-50025501Y-1673257D01*
X-50138743Y-1786499D01*
X-50155164Y-1797471D01*
X-50271898Y-1875470D01*
X-50419858Y-1936758D01*
X-50576925Y-1968000D01*
X-50737075Y-1968000D01*
X-50894142Y-1936758D01*
X-51042102Y-1875470D01*
X-51158836Y-1797471D01*
X-51175257Y-1786499D01*
X-51288499Y-1673257D01*
X-51377471Y-1540100D01*
X-51409780Y-1462100D01*
X-51438758Y-1392142D01*
X-51470000Y-1235075D01*
X-51470000Y-1074925D01*
X-51438758Y-917858D01*
X-51377470Y-769898D01*
X-51288498Y-636742D01*
X-51175258Y-523502D01*
X-51042102Y-434530D01*
X-50894142Y-373242D01*
X-50737075Y-342000D01*
X-50576925Y-342000D01*
X-50419858Y-373242D01*
X-50419858Y-373242D01*
G37*
G36*
X-40419858Y-373242D02*
X-40271898Y-434530D01*
X-40138742Y-523502D01*
X-40025502Y-636742D01*
X-39936530Y-769898D01*
X-39875242Y-917858D01*
X-39844000Y-1074925D01*
X-39844000Y-1235075D01*
X-39875242Y-1392142D01*
X-39904220Y-1462100D01*
X-39936529Y-1540100D01*
X-40025501Y-1673257D01*
X-40138743Y-1786499D01*
X-40155164Y-1797471D01*
X-40271898Y-1875470D01*
X-40419858Y-1936758D01*
X-40576925Y-1968000D01*
X-40737075Y-1968000D01*
X-40894142Y-1936758D01*
X-41042102Y-1875470D01*
X-41158836Y-1797471D01*
X-41175257Y-1786499D01*
X-41288499Y-1673257D01*
X-41377471Y-1540100D01*
X-41409780Y-1462100D01*
X-41438758Y-1392142D01*
X-41470000Y-1235075D01*
X-41470000Y-1074925D01*
X-41438758Y-917858D01*
X-41377470Y-769898D01*
X-41288498Y-636742D01*
X-41175258Y-523502D01*
X-41042102Y-434530D01*
X-40894142Y-373242D01*
X-40737075Y-342000D01*
X-40576925Y-342000D01*
X-40419858Y-373242D01*
X-40419858Y-373242D01*
G37*
G36*
X40026142Y-295242D02*
X40174102Y-356530D01*
X40241130Y-401317D01*
X40290838Y-434530D01*
X40307258Y-445502D01*
X40420498Y-558742D01*
X40509470Y-691898D01*
X40570758Y-839858D01*
X40602000Y-996925D01*
X40602000Y-1157075D01*
X40570758Y-1314142D01*
X40509470Y-1462102D01*
X40420498Y-1595258D01*
X40307258Y-1708498D01*
X40174102Y-1797470D01*
X40026142Y-1858758D01*
X39869075Y-1890000D01*
X39708925Y-1890000D01*
X39551858Y-1858758D01*
X39403898Y-1797470D01*
X39270742Y-1708498D01*
X39157502Y-1595258D01*
X39068530Y-1462102D01*
X39007242Y-1314142D01*
X38976000Y-1157075D01*
X38976000Y-996925D01*
X39007242Y-839858D01*
X39068530Y-691898D01*
X39157502Y-558742D01*
X39270742Y-445502D01*
X39287163Y-434530D01*
X39336870Y-401317D01*
X39403898Y-356530D01*
X39551858Y-295242D01*
X39708925Y-264000D01*
X39869075Y-264000D01*
X40026142Y-295242D01*
X40026142Y-295242D01*
G37*
G36*
X50026142Y-295242D02*
X50174102Y-356530D01*
X50241130Y-401317D01*
X50290838Y-434530D01*
X50307258Y-445502D01*
X50420498Y-558742D01*
X50509470Y-691898D01*
X50570758Y-839858D01*
X50602000Y-996925D01*
X50602000Y-1157075D01*
X50570758Y-1314142D01*
X50509470Y-1462102D01*
X50420498Y-1595258D01*
X50307258Y-1708498D01*
X50174102Y-1797470D01*
X50026142Y-1858758D01*
X49869075Y-1890000D01*
X49708925Y-1890000D01*
X49551858Y-1858758D01*
X49403898Y-1797470D01*
X49270742Y-1708498D01*
X49157502Y-1595258D01*
X49068530Y-1462102D01*
X49007242Y-1314142D01*
X48976000Y-1157075D01*
X48976000Y-996925D01*
X49007242Y-839858D01*
X49068530Y-691898D01*
X49157502Y-558742D01*
X49270742Y-445502D01*
X49287163Y-434530D01*
X49336870Y-401317D01*
X49403898Y-356530D01*
X49551858Y-295242D01*
X49708925Y-264000D01*
X49869075Y-264000D01*
X50026142Y-295242D01*
X50026142Y-295242D01*
G37*
G36*
X-50419858Y2126758D02*
X-50271898Y2065470D01*
X-50138742Y1976498D01*
X-50025502Y1863258D01*
X-49936530Y1730102D01*
X-49875242Y1582142D01*
X-49844000Y1425075D01*
X-49844000Y1264925D01*
X-49875242Y1107858D01*
X-49904220Y1037900D01*
X-49936529Y959900D01*
X-50025501Y826743D01*
X-50138743Y713501D01*
X-50155164Y702529D01*
X-50271898Y624530D01*
X-50419858Y563242D01*
X-50576925Y532000D01*
X-50737075Y532000D01*
X-50894142Y563242D01*
X-51042102Y624530D01*
X-51158836Y702529D01*
X-51175257Y713501D01*
X-51288499Y826743D01*
X-51377471Y959900D01*
X-51409780Y1037900D01*
X-51438758Y1107858D01*
X-51470000Y1264925D01*
X-51470000Y1425075D01*
X-51438758Y1582142D01*
X-51377470Y1730102D01*
X-51288498Y1863258D01*
X-51175258Y1976498D01*
X-51042102Y2065470D01*
X-50894142Y2126758D01*
X-50737075Y2158000D01*
X-50576925Y2158000D01*
X-50419858Y2126758D01*
X-50419858Y2126758D01*
G37*
G36*
X-39844000Y532000D02*
X-41470000Y532000D01*
X-41470000Y2158000D01*
X-39844000Y2158000D01*
X-39844000Y532000D01*
X-39844000Y532000D01*
G37*
G36*
X50602000Y610000D02*
X48976000Y610000D01*
X48976000Y2236000D01*
X50602000Y2236000D01*
X50602000Y610000D01*
X50602000Y610000D01*
G37*
G36*
X40026142Y2204758D02*
X40174102Y2143470D01*
X40241130Y2098683D01*
X40290838Y2065470D01*
X40307258Y2054498D01*
X40420498Y1941258D01*
X40509470Y1808102D01*
X40570758Y1660142D01*
X40602000Y1503075D01*
X40602000Y1342925D01*
X40570758Y1185858D01*
X40509470Y1037898D01*
X40420498Y904742D01*
X40307258Y791502D01*
X40174102Y702530D01*
X40026142Y641242D01*
X39869075Y610000D01*
X39708925Y610000D01*
X39551858Y641242D01*
X39403898Y702530D01*
X39270742Y791502D01*
X39157502Y904742D01*
X39068530Y1037898D01*
X39007242Y1185858D01*
X38976000Y1342925D01*
X38976000Y1503075D01*
X39007242Y1660142D01*
X39068530Y1808102D01*
X39157502Y1941258D01*
X39270742Y2054498D01*
X39287163Y2065470D01*
X39336870Y2098683D01*
X39403898Y2143470D01*
X39551858Y2204758D01*
X39708925Y2236000D01*
X39869075Y2236000D01*
X40026142Y2204758D01*
X40026142Y2204758D01*
G37*
G36*
X-40642179Y8377687D02*
X-40642176Y8377686D01*
X-40642175Y8377686D01*
X-40481761Y8329025D01*
X-40481759Y8329024D01*
X-40481756Y8329023D01*
X-40333922Y8250005D01*
X-40204341Y8143659D01*
X-40097995Y8014078D01*
X-40018977Y7866244D01*
X-40018976Y7866241D01*
X-40018975Y7866239D01*
X-39970314Y7705825D01*
X-39970313Y7705821D01*
X-39953883Y7539000D01*
X-39970313Y7372179D01*
X-39970314Y7372176D01*
X-39970314Y7372175D01*
X-39995007Y7290772D01*
X-40018977Y7211756D01*
X-40097995Y7063922D01*
X-40204341Y6934341D01*
X-40333922Y6827995D01*
X-40481756Y6748977D01*
X-40481759Y6748976D01*
X-40481761Y6748975D01*
X-40642175Y6700314D01*
X-40642176Y6700314D01*
X-40642179Y6700313D01*
X-40767196Y6688000D01*
X-40850804Y6688000D01*
X-40975821Y6700313D01*
X-40975824Y6700314D01*
X-40975825Y6700314D01*
X-41136239Y6748975D01*
X-41136241Y6748976D01*
X-41136244Y6748977D01*
X-41284078Y6827995D01*
X-41413659Y6934341D01*
X-41520005Y7063922D01*
X-41599023Y7211756D01*
X-41622992Y7290772D01*
X-41647686Y7372175D01*
X-41647686Y7372176D01*
X-41647687Y7372179D01*
X-41664117Y7539000D01*
X-41647687Y7705821D01*
X-41647686Y7705825D01*
X-41599025Y7866239D01*
X-41599024Y7866241D01*
X-41599023Y7866244D01*
X-41520005Y8014078D01*
X-41413659Y8143659D01*
X-41284078Y8250005D01*
X-41136244Y8329023D01*
X-41136241Y8329024D01*
X-41136239Y8329025D01*
X-40975825Y8377686D01*
X-40975824Y8377686D01*
X-40975821Y8377687D01*
X-40850804Y8390000D01*
X-40767196Y8390000D01*
X-40642179Y8377687D01*
X-40642179Y8377687D01*
G37*
G36*
X-60372772Y8357297D02*
X-60217900Y8293147D01*
X-60078519Y8200015D01*
X-59959985Y8081481D01*
X-59866853Y7942100D01*
X-59802703Y7787228D01*
X-59770000Y7622816D01*
X-59770000Y7455184D01*
X-59802703Y7290772D01*
X-59866853Y7135900D01*
X-59959985Y6996519D01*
X-60078519Y6877985D01*
X-60217900Y6784853D01*
X-60372772Y6720703D01*
X-60537184Y6688000D01*
X-60704816Y6688000D01*
X-60869228Y6720703D01*
X-61024100Y6784853D01*
X-61163481Y6877985D01*
X-61282015Y6996519D01*
X-61375147Y7135900D01*
X-61439297Y7290772D01*
X-61472000Y7455184D01*
X-61472000Y7622816D01*
X-61439297Y7787228D01*
X-61375147Y7942100D01*
X-61282015Y8081481D01*
X-61163481Y8200015D01*
X-61024100Y8293147D01*
X-60869228Y8357297D01*
X-60704816Y8390000D01*
X-60537184Y8390000D01*
X-60372772Y8357297D01*
X-60372772Y8357297D01*
G37*
G36*
X-50294179Y8377687D02*
X-50294176Y8377686D01*
X-50294175Y8377686D01*
X-50133761Y8329025D01*
X-50133759Y8329024D01*
X-50133756Y8329023D01*
X-49985922Y8250005D01*
X-49856341Y8143659D01*
X-49749995Y8014078D01*
X-49670977Y7866244D01*
X-49670976Y7866241D01*
X-49670975Y7866239D01*
X-49622314Y7705825D01*
X-49622313Y7705821D01*
X-49605883Y7539000D01*
X-49622313Y7372179D01*
X-49622314Y7372176D01*
X-49622314Y7372175D01*
X-49647007Y7290772D01*
X-49670977Y7211756D01*
X-49749995Y7063922D01*
X-49856341Y6934341D01*
X-49985922Y6827995D01*
X-50133756Y6748977D01*
X-50133759Y6748976D01*
X-50133761Y6748975D01*
X-50294175Y6700314D01*
X-50294176Y6700314D01*
X-50294179Y6700313D01*
X-50419196Y6688000D01*
X-50502804Y6688000D01*
X-50627821Y6700313D01*
X-50627824Y6700314D01*
X-50627825Y6700314D01*
X-50788239Y6748975D01*
X-50788241Y6748976D01*
X-50788244Y6748977D01*
X-50936078Y6827995D01*
X-51065659Y6934341D01*
X-51172005Y7063922D01*
X-51251023Y7211756D01*
X-51274992Y7290772D01*
X-51299686Y7372175D01*
X-51299686Y7372176D01*
X-51299687Y7372179D01*
X-51316117Y7539000D01*
X-51299687Y7705821D01*
X-51299686Y7705825D01*
X-51251025Y7866239D01*
X-51251024Y7866241D01*
X-51251023Y7866244D01*
X-51172005Y8014078D01*
X-51065659Y8143659D01*
X-50936078Y8250005D01*
X-50788244Y8329023D01*
X-50788241Y8329024D01*
X-50788239Y8329025D01*
X-50627825Y8377686D01*
X-50627824Y8377686D01*
X-50627821Y8377687D01*
X-50502804Y8390000D01*
X-50419196Y8390000D01*
X-50294179Y8377687D01*
X-50294179Y8377687D01*
G37*
G36*
X-30400772Y8357297D02*
X-30245900Y8293147D01*
X-30106519Y8200015D01*
X-29987985Y8081481D01*
X-29894853Y7942100D01*
X-29830703Y7787228D01*
X-29798000Y7622816D01*
X-29798000Y7455184D01*
X-29830703Y7290772D01*
X-29894853Y7135900D01*
X-29987985Y6996519D01*
X-30106519Y6877985D01*
X-30245900Y6784853D01*
X-30400772Y6720703D01*
X-30565184Y6688000D01*
X-30732816Y6688000D01*
X-30897228Y6720703D01*
X-31052100Y6784853D01*
X-31191481Y6877985D01*
X-31310015Y6996519D01*
X-31403147Y7135900D01*
X-31467297Y7290772D01*
X-31500000Y7455184D01*
X-31500000Y7622816D01*
X-31467297Y7787228D01*
X-31403147Y7942100D01*
X-31310015Y8081481D01*
X-31191481Y8200015D01*
X-31052100Y8293147D01*
X-30897228Y8357297D01*
X-30732816Y8390000D01*
X-30565184Y8390000D01*
X-30400772Y8357297D01*
X-30400772Y8357297D01*
G37*
G36*
X30051228Y8357297D02*
X30206100Y8293147D01*
X30345481Y8200015D01*
X30464015Y8081481D01*
X30557147Y7942100D01*
X30621297Y7787228D01*
X30654000Y7622816D01*
X30654000Y7455184D01*
X30621297Y7290772D01*
X30557147Y7135900D01*
X30464015Y6996519D01*
X30345481Y6877985D01*
X30206100Y6784853D01*
X30051228Y6720703D01*
X29886816Y6688000D01*
X29719184Y6688000D01*
X29554772Y6720703D01*
X29399900Y6784853D01*
X29260519Y6877985D01*
X29141985Y6996519D01*
X29048853Y7135900D01*
X28984703Y7290772D01*
X28952000Y7455184D01*
X28952000Y7622816D01*
X28984703Y7787228D01*
X29048853Y7942100D01*
X29141985Y8081481D01*
X29260519Y8200015D01*
X29399900Y8293147D01*
X29554772Y8357297D01*
X29719184Y8390000D01*
X29886816Y8390000D01*
X30051228Y8357297D01*
X30051228Y8357297D01*
G37*
G36*
X40129821Y8377687D02*
X40129824Y8377686D01*
X40129825Y8377686D01*
X40290239Y8329025D01*
X40290241Y8329024D01*
X40290244Y8329023D01*
X40438078Y8250005D01*
X40567659Y8143659D01*
X40674005Y8014078D01*
X40753023Y7866244D01*
X40753024Y7866241D01*
X40753025Y7866239D01*
X40801686Y7705825D01*
X40801687Y7705821D01*
X40818117Y7539000D01*
X40801687Y7372179D01*
X40801686Y7372176D01*
X40801686Y7372175D01*
X40776993Y7290772D01*
X40753023Y7211756D01*
X40674005Y7063922D01*
X40567659Y6934341D01*
X40438078Y6827995D01*
X40290244Y6748977D01*
X40290241Y6748976D01*
X40290239Y6748975D01*
X40129825Y6700314D01*
X40129824Y6700314D01*
X40129821Y6700313D01*
X40004804Y6688000D01*
X39921196Y6688000D01*
X39796179Y6700313D01*
X39796176Y6700314D01*
X39796175Y6700314D01*
X39635761Y6748975D01*
X39635759Y6748976D01*
X39635756Y6748977D01*
X39487922Y6827995D01*
X39358341Y6934341D01*
X39251995Y7063922D01*
X39172977Y7211756D01*
X39149008Y7290772D01*
X39124314Y7372175D01*
X39124314Y7372176D01*
X39124313Y7372179D01*
X39107883Y7539000D01*
X39124313Y7705821D01*
X39124314Y7705825D01*
X39172975Y7866239D01*
X39172976Y7866241D01*
X39172977Y7866244D01*
X39251995Y8014078D01*
X39358341Y8143659D01*
X39487922Y8250005D01*
X39635756Y8329023D01*
X39635759Y8329024D01*
X39635761Y8329025D01*
X39796175Y8377686D01*
X39796176Y8377686D01*
X39796179Y8377687D01*
X39921196Y8390000D01*
X40004804Y8390000D01*
X40129821Y8377687D01*
X40129821Y8377687D01*
G37*
G36*
X49781821Y8377687D02*
X49781824Y8377686D01*
X49781825Y8377686D01*
X49942239Y8329025D01*
X49942241Y8329024D01*
X49942244Y8329023D01*
X50090078Y8250005D01*
X50219659Y8143659D01*
X50326005Y8014078D01*
X50405023Y7866244D01*
X50405024Y7866241D01*
X50405025Y7866239D01*
X50453686Y7705825D01*
X50453687Y7705821D01*
X50470117Y7539000D01*
X50453687Y7372179D01*
X50453686Y7372176D01*
X50453686Y7372175D01*
X50428993Y7290772D01*
X50405023Y7211756D01*
X50326005Y7063922D01*
X50219659Y6934341D01*
X50090078Y6827995D01*
X49942244Y6748977D01*
X49942241Y6748976D01*
X49942239Y6748975D01*
X49781825Y6700314D01*
X49781824Y6700314D01*
X49781821Y6700313D01*
X49656804Y6688000D01*
X49573196Y6688000D01*
X49448179Y6700313D01*
X49448176Y6700314D01*
X49448175Y6700314D01*
X49287761Y6748975D01*
X49287759Y6748976D01*
X49287756Y6748977D01*
X49139922Y6827995D01*
X49010341Y6934341D01*
X48903995Y7063922D01*
X48824977Y7211756D01*
X48801008Y7290772D01*
X48776314Y7372175D01*
X48776314Y7372176D01*
X48776313Y7372179D01*
X48759883Y7539000D01*
X48776313Y7705821D01*
X48776314Y7705825D01*
X48824975Y7866239D01*
X48824976Y7866241D01*
X48824977Y7866244D01*
X48903995Y8014078D01*
X49010341Y8143659D01*
X49139922Y8250005D01*
X49287756Y8329023D01*
X49287759Y8329024D01*
X49287761Y8329025D01*
X49448175Y8377686D01*
X49448176Y8377686D01*
X49448179Y8377687D01*
X49573196Y8390000D01*
X49656804Y8390000D01*
X49781821Y8377687D01*
X49781821Y8377687D01*
G37*
G36*
X60023228Y8357297D02*
X60178100Y8293147D01*
X60317481Y8200015D01*
X60436015Y8081481D01*
X60529147Y7942100D01*
X60593297Y7787228D01*
X60626000Y7622816D01*
X60626000Y7455184D01*
X60593297Y7290772D01*
X60529147Y7135900D01*
X60436015Y6996519D01*
X60317481Y6877985D01*
X60178100Y6784853D01*
X60023228Y6720703D01*
X59858816Y6688000D01*
X59691184Y6688000D01*
X59526772Y6720703D01*
X59371900Y6784853D01*
X59232519Y6877985D01*
X59113985Y6996519D01*
X59020853Y7135900D01*
X58956703Y7290772D01*
X58924000Y7455184D01*
X58924000Y7622816D01*
X58956703Y7787228D01*
X59020853Y7942100D01*
X59113985Y8081481D01*
X59232519Y8200015D01*
X59371900Y8293147D01*
X59526772Y8357297D01*
X59691184Y8390000D01*
X59858816Y8390000D01*
X60023228Y8357297D01*
X60023228Y8357297D01*
G37*
G36*
X-10571000Y10956000D02*
X-12373000Y10956000D01*
X-12373000Y12758000D01*
X-10571000Y12758000D01*
X-10571000Y10956000D01*
X-10571000Y10956000D01*
G37*
G36*
X-8821558Y12751482D02*
X-8755373Y12744963D01*
X-8642147Y12710616D01*
X-8585533Y12693443D01*
X-8446913Y12619348D01*
X-8429009Y12609778D01*
X-8393271Y12580448D01*
X-8291814Y12497186D01*
X-8208552Y12395729D01*
X-8179222Y12359991D01*
X-8179221Y12359989D01*
X-8095557Y12203467D01*
X-8095557Y12203466D01*
X-8044037Y12033627D01*
X-8026641Y11857000D01*
X-8044037Y11680373D01*
X-8078384Y11567147D01*
X-8095557Y11510533D01*
X-8116787Y11470815D01*
X-8179222Y11354009D01*
X-8208552Y11318271D01*
X-8291814Y11216814D01*
X-8393271Y11133552D01*
X-8429009Y11104222D01*
X-8429011Y11104221D01*
X-8585533Y11020557D01*
X-8642147Y11003384D01*
X-8755373Y10969037D01*
X-8821558Y10962518D01*
X-8887740Y10956000D01*
X-8976260Y10956000D01*
X-9042442Y10962518D01*
X-9108627Y10969037D01*
X-9221853Y11003384D01*
X-9278467Y11020557D01*
X-9434989Y11104221D01*
X-9434991Y11104222D01*
X-9470729Y11133552D01*
X-9572186Y11216814D01*
X-9655448Y11318271D01*
X-9684778Y11354009D01*
X-9747213Y11470815D01*
X-9768443Y11510533D01*
X-9785616Y11567147D01*
X-9819963Y11680373D01*
X-9837359Y11857000D01*
X-9819963Y12033627D01*
X-9768443Y12203466D01*
X-9768443Y12203467D01*
X-9684779Y12359989D01*
X-9684778Y12359991D01*
X-9655448Y12395729D01*
X-9572186Y12497186D01*
X-9470729Y12580448D01*
X-9434991Y12609778D01*
X-9417087Y12619348D01*
X-9278467Y12693443D01*
X-9221853Y12710616D01*
X-9108627Y12744963D01*
X-9042442Y12751482D01*
X-8976260Y12758000D01*
X-8887740Y12758000D01*
X-8821558Y12751482D01*
X-8821558Y12751482D01*
G37*
G36*
X-3741558Y12751482D02*
X-3675373Y12744963D01*
X-3562147Y12710616D01*
X-3505533Y12693443D01*
X-3366913Y12619348D01*
X-3349009Y12609778D01*
X-3313271Y12580448D01*
X-3211814Y12497186D01*
X-3128552Y12395729D01*
X-3099222Y12359991D01*
X-3099221Y12359989D01*
X-3015557Y12203467D01*
X-3015557Y12203466D01*
X-2964037Y12033627D01*
X-2946641Y11857000D01*
X-2964037Y11680373D01*
X-2998384Y11567147D01*
X-3015557Y11510533D01*
X-3036787Y11470815D01*
X-3099222Y11354009D01*
X-3128552Y11318271D01*
X-3211814Y11216814D01*
X-3313271Y11133552D01*
X-3349009Y11104222D01*
X-3349011Y11104221D01*
X-3505533Y11020557D01*
X-3562147Y11003384D01*
X-3675373Y10969037D01*
X-3741558Y10962518D01*
X-3807740Y10956000D01*
X-3896260Y10956000D01*
X-3962442Y10962518D01*
X-4028627Y10969037D01*
X-4141853Y11003384D01*
X-4198467Y11020557D01*
X-4354989Y11104221D01*
X-4354991Y11104222D01*
X-4390729Y11133552D01*
X-4492186Y11216814D01*
X-4575448Y11318271D01*
X-4604778Y11354009D01*
X-4667213Y11470815D01*
X-4688443Y11510533D01*
X-4705616Y11567147D01*
X-4739963Y11680373D01*
X-4757359Y11857000D01*
X-4739963Y12033627D01*
X-4688443Y12203466D01*
X-4688443Y12203467D01*
X-4604779Y12359989D01*
X-4604778Y12359991D01*
X-4575448Y12395729D01*
X-4492186Y12497186D01*
X-4390729Y12580448D01*
X-4354991Y12609778D01*
X-4337087Y12619348D01*
X-4198467Y12693443D01*
X-4141853Y12710616D01*
X-4028627Y12744963D01*
X-3962442Y12751482D01*
X-3896260Y12758000D01*
X-3807740Y12758000D01*
X-3741558Y12751482D01*
X-3741558Y12751482D01*
G37*
G36*
X-6281558Y12751482D02*
X-6215373Y12744963D01*
X-6102147Y12710616D01*
X-6045533Y12693443D01*
X-5906913Y12619348D01*
X-5889009Y12609778D01*
X-5853271Y12580448D01*
X-5751814Y12497186D01*
X-5668552Y12395729D01*
X-5639222Y12359991D01*
X-5639221Y12359989D01*
X-5555557Y12203467D01*
X-5555557Y12203466D01*
X-5504037Y12033627D01*
X-5486641Y11857000D01*
X-5504037Y11680373D01*
X-5538384Y11567147D01*
X-5555557Y11510533D01*
X-5576787Y11470815D01*
X-5639222Y11354009D01*
X-5668552Y11318271D01*
X-5751814Y11216814D01*
X-5853271Y11133552D01*
X-5889009Y11104222D01*
X-5889011Y11104221D01*
X-6045533Y11020557D01*
X-6102147Y11003384D01*
X-6215373Y10969037D01*
X-6281558Y10962518D01*
X-6347740Y10956000D01*
X-6436260Y10956000D01*
X-6502442Y10962518D01*
X-6568627Y10969037D01*
X-6681853Y11003384D01*
X-6738467Y11020557D01*
X-6894989Y11104221D01*
X-6894991Y11104222D01*
X-6930729Y11133552D01*
X-7032186Y11216814D01*
X-7115448Y11318271D01*
X-7144778Y11354009D01*
X-7207213Y11470815D01*
X-7228443Y11510533D01*
X-7245616Y11567147D01*
X-7279963Y11680373D01*
X-7297359Y11857000D01*
X-7279963Y12033627D01*
X-7228443Y12203466D01*
X-7228443Y12203467D01*
X-7144779Y12359989D01*
X-7144778Y12359991D01*
X-7115448Y12395729D01*
X-7032186Y12497186D01*
X-6930729Y12580448D01*
X-6894991Y12609778D01*
X-6877087Y12619348D01*
X-6738467Y12693443D01*
X-6681853Y12710616D01*
X-6568627Y12744963D01*
X-6502442Y12751482D01*
X-6436260Y12758000D01*
X-6347740Y12758000D01*
X-6281558Y12751482D01*
X-6281558Y12751482D01*
G37*
G36*
X24579442Y13005482D02*
X24645627Y12998963D01*
X24758853Y12964616D01*
X24815467Y12947443D01*
X24954087Y12873348D01*
X24971991Y12863778D01*
X25007729Y12834448D01*
X25109186Y12751186D01*
X25192448Y12649729D01*
X25221778Y12613991D01*
X25221779Y12613989D01*
X25305443Y12457467D01*
X25305443Y12457466D01*
X25356963Y12287627D01*
X25374359Y12111000D01*
X25356963Y11934373D01*
X25333492Y11857000D01*
X25305443Y11764533D01*
X25260459Y11680375D01*
X25221778Y11608009D01*
X25192448Y11572271D01*
X25109186Y11470814D01*
X25007729Y11387552D01*
X24971991Y11358222D01*
X24971989Y11358221D01*
X24815467Y11274557D01*
X24758853Y11257384D01*
X24645627Y11223037D01*
X24582453Y11216815D01*
X24513260Y11210000D01*
X24424740Y11210000D01*
X24355547Y11216815D01*
X24292373Y11223037D01*
X24179147Y11257384D01*
X24122533Y11274557D01*
X23966011Y11358221D01*
X23966009Y11358222D01*
X23930271Y11387552D01*
X23828814Y11470814D01*
X23745552Y11572271D01*
X23716222Y11608009D01*
X23677541Y11680375D01*
X23632557Y11764533D01*
X23604508Y11857000D01*
X23581037Y11934373D01*
X23563641Y12111000D01*
X23581037Y12287627D01*
X23632557Y12457466D01*
X23632557Y12457467D01*
X23716221Y12613989D01*
X23716222Y12613991D01*
X23745552Y12649729D01*
X23828814Y12751186D01*
X23930271Y12834448D01*
X23966009Y12863778D01*
X23983913Y12873348D01*
X24122533Y12947443D01*
X24179147Y12964616D01*
X24292373Y12998963D01*
X24358557Y13005481D01*
X24424740Y13012000D01*
X24513260Y13012000D01*
X24579442Y13005482D01*
X24579442Y13005482D01*
G37*
G36*
X22039442Y13005482D02*
X22105627Y12998963D01*
X22218853Y12964616D01*
X22275467Y12947443D01*
X22414087Y12873348D01*
X22431991Y12863778D01*
X22467729Y12834448D01*
X22569186Y12751186D01*
X22652448Y12649729D01*
X22681778Y12613991D01*
X22681779Y12613989D01*
X22765443Y12457467D01*
X22765443Y12457466D01*
X22816963Y12287627D01*
X22834359Y12111000D01*
X22816963Y11934373D01*
X22793492Y11857000D01*
X22765443Y11764533D01*
X22720459Y11680375D01*
X22681778Y11608009D01*
X22652448Y11572271D01*
X22569186Y11470814D01*
X22467729Y11387552D01*
X22431991Y11358222D01*
X22431989Y11358221D01*
X22275467Y11274557D01*
X22218853Y11257384D01*
X22105627Y11223037D01*
X22042453Y11216815D01*
X21973260Y11210000D01*
X21884740Y11210000D01*
X21815547Y11216815D01*
X21752373Y11223037D01*
X21639147Y11257384D01*
X21582533Y11274557D01*
X21426011Y11358221D01*
X21426009Y11358222D01*
X21390271Y11387552D01*
X21288814Y11470814D01*
X21205552Y11572271D01*
X21176222Y11608009D01*
X21137541Y11680375D01*
X21092557Y11764533D01*
X21064508Y11857000D01*
X21041037Y11934373D01*
X21023641Y12111000D01*
X21041037Y12287627D01*
X21092557Y12457466D01*
X21092557Y12457467D01*
X21176221Y12613989D01*
X21176222Y12613991D01*
X21205552Y12649729D01*
X21288814Y12751186D01*
X21390271Y12834448D01*
X21426009Y12863778D01*
X21443913Y12873348D01*
X21582533Y12947443D01*
X21639147Y12964616D01*
X21752373Y12998963D01*
X21818557Y13005481D01*
X21884740Y13012000D01*
X21973260Y13012000D01*
X22039442Y13005482D01*
X22039442Y13005482D01*
G37*
G36*
X19499442Y13005482D02*
X19565627Y12998963D01*
X19678853Y12964616D01*
X19735467Y12947443D01*
X19874087Y12873348D01*
X19891991Y12863778D01*
X19927729Y12834448D01*
X20029186Y12751186D01*
X20112448Y12649729D01*
X20141778Y12613991D01*
X20141779Y12613989D01*
X20225443Y12457467D01*
X20225443Y12457466D01*
X20276963Y12287627D01*
X20294359Y12111000D01*
X20276963Y11934373D01*
X20253492Y11857000D01*
X20225443Y11764533D01*
X20180459Y11680375D01*
X20141778Y11608009D01*
X20112448Y11572271D01*
X20029186Y11470814D01*
X19927729Y11387552D01*
X19891991Y11358222D01*
X19891989Y11358221D01*
X19735467Y11274557D01*
X19678853Y11257384D01*
X19565627Y11223037D01*
X19502453Y11216815D01*
X19433260Y11210000D01*
X19344740Y11210000D01*
X19275547Y11216815D01*
X19212373Y11223037D01*
X19099147Y11257384D01*
X19042533Y11274557D01*
X18886011Y11358221D01*
X18886009Y11358222D01*
X18850271Y11387552D01*
X18748814Y11470814D01*
X18665552Y11572271D01*
X18636222Y11608009D01*
X18597541Y11680375D01*
X18552557Y11764533D01*
X18524508Y11857000D01*
X18501037Y11934373D01*
X18483641Y12111000D01*
X18501037Y12287627D01*
X18552557Y12457466D01*
X18552557Y12457467D01*
X18636221Y12613989D01*
X18636222Y12613991D01*
X18665552Y12649729D01*
X18748814Y12751186D01*
X18850271Y12834448D01*
X18886009Y12863778D01*
X18903913Y12873348D01*
X19042533Y12947443D01*
X19099147Y12964616D01*
X19212373Y12998963D01*
X19278557Y13005481D01*
X19344740Y13012000D01*
X19433260Y13012000D01*
X19499442Y13005482D01*
X19499442Y13005482D01*
G37*
G36*
X17750000Y11210000D02*
X15948000Y11210000D01*
X15948000Y13012000D01*
X17750000Y13012000D01*
X17750000Y11210000D01*
X17750000Y11210000D01*
G37*
G36*
X49373000Y19973000D02*
X47571000Y19973000D01*
X47571000Y21775000D01*
X49373000Y21775000D01*
X49373000Y19973000D01*
X49373000Y19973000D01*
G37*
G36*
X48582443Y24308481D02*
X48648627Y24301963D01*
X48761853Y24267616D01*
X48818467Y24250443D01*
X48957087Y24176348D01*
X48974991Y24166778D01*
X49010729Y24137448D01*
X49112186Y24054186D01*
X49195448Y23952729D01*
X49224778Y23916991D01*
X49224779Y23916989D01*
X49308443Y23760467D01*
X49308443Y23760466D01*
X49359963Y23590627D01*
X49377359Y23414000D01*
X49359963Y23237373D01*
X49325616Y23124147D01*
X49308443Y23067533D01*
X49234348Y22928913D01*
X49224778Y22911009D01*
X49195448Y22875271D01*
X49112186Y22773814D01*
X49010729Y22690552D01*
X48974991Y22661222D01*
X48974989Y22661221D01*
X48818467Y22577557D01*
X48761853Y22560384D01*
X48648627Y22526037D01*
X48582443Y22519519D01*
X48516260Y22513000D01*
X48427740Y22513000D01*
X48361557Y22519519D01*
X48295373Y22526037D01*
X48182147Y22560384D01*
X48125533Y22577557D01*
X47969011Y22661221D01*
X47969009Y22661222D01*
X47933271Y22690552D01*
X47831814Y22773814D01*
X47748552Y22875271D01*
X47719222Y22911009D01*
X47709652Y22928913D01*
X47635557Y23067533D01*
X47618384Y23124147D01*
X47584037Y23237373D01*
X47566641Y23414000D01*
X47584037Y23590627D01*
X47635557Y23760466D01*
X47635557Y23760467D01*
X47719221Y23916989D01*
X47719222Y23916991D01*
X47748552Y23952729D01*
X47831814Y24054186D01*
X47933271Y24137448D01*
X47969009Y24166778D01*
X47986913Y24176348D01*
X48125533Y24250443D01*
X48182147Y24267616D01*
X48295373Y24301963D01*
X48361557Y24308481D01*
X48427740Y24315000D01*
X48516260Y24315000D01*
X48582443Y24308481D01*
X48582443Y24308481D01*
G37*
G36*
X48582443Y26848481D02*
X48648627Y26841963D01*
X48761853Y26807616D01*
X48818467Y26790443D01*
X48957087Y26716348D01*
X48974991Y26706778D01*
X49010729Y26677448D01*
X49112186Y26594186D01*
X49195448Y26492729D01*
X49224778Y26456991D01*
X49224779Y26456989D01*
X49308443Y26300467D01*
X49308443Y26300466D01*
X49359963Y26130627D01*
X49377359Y25954000D01*
X49359963Y25777373D01*
X49325616Y25664147D01*
X49308443Y25607533D01*
X49234348Y25468913D01*
X49224778Y25451009D01*
X49195448Y25415271D01*
X49112186Y25313814D01*
X49010729Y25230552D01*
X48974991Y25201222D01*
X48974989Y25201221D01*
X48818467Y25117557D01*
X48761853Y25100384D01*
X48648627Y25066037D01*
X48582443Y25059519D01*
X48516260Y25053000D01*
X48427740Y25053000D01*
X48361558Y25059518D01*
X48295373Y25066037D01*
X48182147Y25100384D01*
X48125533Y25117557D01*
X47969011Y25201221D01*
X47969009Y25201222D01*
X47933271Y25230552D01*
X47831814Y25313814D01*
X47748552Y25415271D01*
X47719222Y25451009D01*
X47709652Y25468913D01*
X47635557Y25607533D01*
X47618384Y25664147D01*
X47584037Y25777373D01*
X47566641Y25954000D01*
X47584037Y26130627D01*
X47635557Y26300466D01*
X47635557Y26300467D01*
X47719221Y26456989D01*
X47719222Y26456991D01*
X47748552Y26492729D01*
X47831814Y26594186D01*
X47933271Y26677448D01*
X47969009Y26706778D01*
X47986913Y26716348D01*
X48125533Y26790443D01*
X48182147Y26807616D01*
X48295373Y26841963D01*
X48361557Y26848481D01*
X48427740Y26855000D01*
X48516260Y26855000D01*
X48582443Y26848481D01*
X48582443Y26848481D01*
G37*
G36*
X48582442Y29388482D02*
X48648627Y29381963D01*
X48761853Y29347616D01*
X48818467Y29330443D01*
X48957087Y29256348D01*
X48974991Y29246778D01*
X49010729Y29217448D01*
X49112186Y29134186D01*
X49195448Y29032729D01*
X49224778Y28996991D01*
X49224779Y28996989D01*
X49308443Y28840467D01*
X49308443Y28840466D01*
X49359963Y28670627D01*
X49377359Y28494000D01*
X49359963Y28317373D01*
X49325616Y28204147D01*
X49308443Y28147533D01*
X49234348Y28008913D01*
X49224778Y27991009D01*
X49195448Y27955271D01*
X49112186Y27853814D01*
X49010729Y27770552D01*
X48974991Y27741222D01*
X48974989Y27741221D01*
X48818467Y27657557D01*
X48761853Y27640384D01*
X48648627Y27606037D01*
X48582443Y27599519D01*
X48516260Y27593000D01*
X48427740Y27593000D01*
X48361557Y27599519D01*
X48295373Y27606037D01*
X48182147Y27640384D01*
X48125533Y27657557D01*
X47969011Y27741221D01*
X47969009Y27741222D01*
X47933271Y27770552D01*
X47831814Y27853814D01*
X47748552Y27955271D01*
X47719222Y27991009D01*
X47709652Y28008913D01*
X47635557Y28147533D01*
X47618384Y28204147D01*
X47584037Y28317373D01*
X47566641Y28494000D01*
X47584037Y28670627D01*
X47635557Y28840466D01*
X47635557Y28840467D01*
X47719221Y28996989D01*
X47719222Y28996991D01*
X47748552Y29032729D01*
X47831814Y29134186D01*
X47933271Y29217448D01*
X47969009Y29246778D01*
X47986913Y29256348D01*
X48125533Y29330443D01*
X48182147Y29347616D01*
X48295373Y29381963D01*
X48361558Y29388482D01*
X48427740Y29395000D01*
X48516260Y29395000D01*
X48582442Y29388482D01*
X48582442Y29388482D01*
G37*
G36*
X75352527Y58511264D02*
X75452410Y58491396D01*
X75734674Y58374479D01*
X75988705Y58204741D01*
X76204741Y57988705D01*
X76374479Y57734674D01*
X76491396Y57452410D01*
X76551000Y57152760D01*
X76551000Y56847240D01*
X76491396Y56547590D01*
X76374479Y56265326D01*
X76204741Y56011295D01*
X75988705Y55795259D01*
X75734674Y55625521D01*
X75452410Y55508604D01*
X75352527Y55488736D01*
X75152762Y55449000D01*
X74847238Y55449000D01*
X74647473Y55488736D01*
X74547590Y55508604D01*
X74265326Y55625521D01*
X74011295Y55795259D01*
X73795259Y56011295D01*
X73625521Y56265326D01*
X73508604Y56547590D01*
X73449000Y56847240D01*
X73449000Y57152760D01*
X73508604Y57452410D01*
X73625521Y57734674D01*
X73795259Y57988705D01*
X74011295Y58204741D01*
X74265326Y58374479D01*
X74547590Y58491396D01*
X74647473Y58511264D01*
X74847238Y58551000D01*
X75152762Y58551000D01*
X75352527Y58511264D01*
X75352527Y58511264D01*
G37*
G36*
X-74647473Y58511264D02*
X-74547590Y58491396D01*
X-74265326Y58374479D01*
X-74011295Y58204741D01*
X-73795259Y57988705D01*
X-73625521Y57734674D01*
X-73508604Y57452410D01*
X-73449000Y57152760D01*
X-73449000Y56847240D01*
X-73508604Y56547590D01*
X-73625521Y56265326D01*
X-73795259Y56011295D01*
X-74011295Y55795259D01*
X-74265326Y55625521D01*
X-74547590Y55508604D01*
X-74647473Y55488736D01*
X-74847238Y55449000D01*
X-75152762Y55449000D01*
X-75352527Y55488736D01*
X-75452410Y55508604D01*
X-75734674Y55625521D01*
X-75988705Y55795259D01*
X-76204741Y56011295D01*
X-76374479Y56265326D01*
X-76491396Y56547590D01*
X-76551000Y56847240D01*
X-76551000Y57152760D01*
X-76491396Y57452410D01*
X-76374479Y57734674D01*
X-76204741Y57988705D01*
X-75988705Y58204741D01*
X-75734674Y58374479D01*
X-75452410Y58491396D01*
X-75352527Y58511264D01*
X-75152762Y58551000D01*
X-74847238Y58551000D01*
X-74647473Y58511264D01*
X-74647473Y58511264D01*
G37*
G36*
X62650442Y70894482D02*
X62716627Y70887963D01*
X62829853Y70853616D01*
X62886467Y70836443D01*
X63025087Y70762348D01*
X63042991Y70752778D01*
X63078729Y70723448D01*
X63180186Y70640186D01*
X63263448Y70538729D01*
X63292778Y70502991D01*
X63292779Y70502989D01*
X63376443Y70346467D01*
X63376443Y70346466D01*
X63427963Y70176627D01*
X63445359Y70000000D01*
X63427963Y69823373D01*
X63393616Y69710147D01*
X63376443Y69653533D01*
X63302348Y69514913D01*
X63292778Y69497009D01*
X63263448Y69461271D01*
X63180186Y69359814D01*
X63078729Y69276552D01*
X63042991Y69247222D01*
X63042989Y69247221D01*
X62886467Y69163557D01*
X62829853Y69146384D01*
X62716627Y69112037D01*
X62650443Y69105519D01*
X62584260Y69099000D01*
X62495740Y69099000D01*
X62429557Y69105519D01*
X62363373Y69112037D01*
X62250147Y69146384D01*
X62193533Y69163557D01*
X62037011Y69247221D01*
X62037009Y69247222D01*
X62001271Y69276552D01*
X61899814Y69359814D01*
X61816552Y69461271D01*
X61787222Y69497009D01*
X61777652Y69514913D01*
X61703557Y69653533D01*
X61686384Y69710147D01*
X61652037Y69823373D01*
X61634641Y70000000D01*
X61652037Y70176627D01*
X61703557Y70346466D01*
X61703557Y70346467D01*
X61787221Y70502989D01*
X61787222Y70502991D01*
X61816552Y70538729D01*
X61899814Y70640186D01*
X62001271Y70723448D01*
X62037009Y70752778D01*
X62054913Y70762348D01*
X62193533Y70836443D01*
X62250147Y70853616D01*
X62363373Y70887963D01*
X62429558Y70894482D01*
X62495740Y70901000D01*
X62584260Y70901000D01*
X62650442Y70894482D01*
X62650442Y70894482D01*
G37*
G36*
X-59099000Y69099000D02*
X-60901000Y69099000D01*
X-60901000Y70901000D01*
X-59099000Y70901000D01*
X-59099000Y69099000D01*
X-59099000Y69099000D01*
G37*
G36*
X-57349558Y70894482D02*
X-57283373Y70887963D01*
X-57170147Y70853616D01*
X-57113533Y70836443D01*
X-56974913Y70762348D01*
X-56957009Y70752778D01*
X-56921271Y70723448D01*
X-56819814Y70640186D01*
X-56736552Y70538729D01*
X-56707222Y70502991D01*
X-56707221Y70502989D01*
X-56623557Y70346467D01*
X-56623557Y70346466D01*
X-56572037Y70176627D01*
X-56554641Y70000000D01*
X-56572037Y69823373D01*
X-56606384Y69710147D01*
X-56623557Y69653533D01*
X-56697652Y69514913D01*
X-56707222Y69497009D01*
X-56736552Y69461271D01*
X-56819814Y69359814D01*
X-56921271Y69276552D01*
X-56957009Y69247222D01*
X-56957011Y69247221D01*
X-57113533Y69163557D01*
X-57170147Y69146384D01*
X-57283373Y69112037D01*
X-57349557Y69105519D01*
X-57415740Y69099000D01*
X-57504260Y69099000D01*
X-57570443Y69105519D01*
X-57636627Y69112037D01*
X-57749853Y69146384D01*
X-57806467Y69163557D01*
X-57962989Y69247221D01*
X-57962991Y69247222D01*
X-57998729Y69276552D01*
X-58100186Y69359814D01*
X-58183448Y69461271D01*
X-58212778Y69497009D01*
X-58222348Y69514913D01*
X-58296443Y69653533D01*
X-58313616Y69710147D01*
X-58347963Y69823373D01*
X-58365359Y70000000D01*
X-58347963Y70176627D01*
X-58296443Y70346466D01*
X-58296443Y70346467D01*
X-58212779Y70502989D01*
X-58212778Y70502991D01*
X-58183448Y70538729D01*
X-58100186Y70640186D01*
X-57998729Y70723448D01*
X-57962991Y70752778D01*
X-57945087Y70762348D01*
X-57806467Y70836443D01*
X-57749853Y70853616D01*
X-57636627Y70887963D01*
X-57570442Y70894482D01*
X-57504260Y70901000D01*
X-57415740Y70901000D01*
X-57349558Y70894482D01*
X-57349558Y70894482D01*
G37*
G36*
X60901000Y69099000D02*
X59099000Y69099000D01*
X59099000Y70901000D01*
X60901000Y70901000D01*
X60901000Y69099000D01*
X60901000Y69099000D01*
G37*
G36*
X-488000Y84616800D02*
X-2390000Y84616800D01*
X-2390000Y86518800D01*
X-488000Y86518800D01*
X-488000Y84616800D01*
X-488000Y84616800D01*
G37*
G36*
X1378396Y86482254D02*
X1551466Y86410566D01*
X1707230Y86306488D01*
X1839688Y86174030D01*
X1943766Y86018266D01*
X2015454Y85845196D01*
X2052000Y85661467D01*
X2052000Y85474133D01*
X2015454Y85290404D01*
X1943766Y85117334D01*
X1839688Y84961570D01*
X1707230Y84829112D01*
X1551466Y84725034D01*
X1378396Y84653346D01*
X1194667Y84616800D01*
X1007333Y84616800D01*
X823604Y84653346D01*
X650534Y84725034D01*
X494770Y84829112D01*
X362312Y84961570D01*
X258234Y85117334D01*
X186546Y85290404D01*
X150000Y85474133D01*
X150000Y85661467D01*
X186546Y85845196D01*
X258234Y86018266D01*
X362312Y86174030D01*
X494770Y86306488D01*
X650534Y86410566D01*
X823604Y86482254D01*
X1007333Y86518800D01*
X1194667Y86518800D01*
X1378396Y86482254D01*
X1378396Y86482254D01*
G37*
G36*
X11763228Y97511297D02*
X11918100Y97447147D01*
X12057481Y97354015D01*
X12176015Y97235481D01*
X12269147Y97096100D01*
X12333297Y96941228D01*
X12366000Y96776816D01*
X12366000Y96609184D01*
X12333297Y96444772D01*
X12269147Y96289900D01*
X12176015Y96150519D01*
X12057481Y96031985D01*
X11918100Y95938853D01*
X11763228Y95874703D01*
X11598816Y95842000D01*
X11431184Y95842000D01*
X11266772Y95874703D01*
X11111900Y95938853D01*
X10972519Y96031985D01*
X10853985Y96150519D01*
X10760853Y96289900D01*
X10696703Y96444772D01*
X10664000Y96609184D01*
X10664000Y96776816D01*
X10696703Y96941228D01*
X10760853Y97096100D01*
X10853985Y97235481D01*
X10972519Y97354015D01*
X11111900Y97447147D01*
X11266772Y97511297D01*
X11431184Y97544000D01*
X11598816Y97544000D01*
X11763228Y97511297D01*
X11763228Y97511297D01*
G37*
G36*
X-11686179Y97785687D02*
X-11686176Y97785686D01*
X-11686175Y97785686D01*
X-11525761Y97737025D01*
X-11525759Y97737024D01*
X-11525756Y97737023D01*
X-11377922Y97658005D01*
X-11248341Y97551659D01*
X-11141995Y97422078D01*
X-11062977Y97274244D01*
X-11014313Y97113821D01*
X-10997883Y96947000D01*
X-11014313Y96780179D01*
X-11062977Y96619756D01*
X-11141995Y96471922D01*
X-11248341Y96342341D01*
X-11377922Y96235995D01*
X-11525756Y96156977D01*
X-11525759Y96156976D01*
X-11525761Y96156975D01*
X-11686175Y96108314D01*
X-11686176Y96108314D01*
X-11686179Y96108313D01*
X-11811196Y96096000D01*
X-11894804Y96096000D01*
X-12019821Y96108313D01*
X-12019824Y96108314D01*
X-12019825Y96108314D01*
X-12180239Y96156975D01*
X-12180241Y96156976D01*
X-12180244Y96156977D01*
X-12328078Y96235995D01*
X-12457659Y96342341D01*
X-12564005Y96471922D01*
X-12643023Y96619756D01*
X-12691687Y96780179D01*
X-12708117Y96947000D01*
X-12691687Y97113821D01*
X-12643023Y97274244D01*
X-12564005Y97422078D01*
X-12457659Y97551659D01*
X-12328078Y97658005D01*
X-12180244Y97737023D01*
X-12180241Y97737024D01*
X-12180239Y97737025D01*
X-12019825Y97785686D01*
X-12019824Y97785686D01*
X-12019821Y97785687D01*
X-11894804Y97798000D01*
X-11811196Y97798000D01*
X-11686179Y97785687D01*
X-11686179Y97785687D01*
G37*
G36*
X11681821Y107691687D02*
X11681824Y107691686D01*
X11681825Y107691686D01*
X11842239Y107643025D01*
X11842241Y107643024D01*
X11842244Y107643023D01*
X11990078Y107564005D01*
X12119659Y107457659D01*
X12226005Y107328078D01*
X12305023Y107180244D01*
X12353687Y107019821D01*
X12370117Y106853000D01*
X12353687Y106686179D01*
X12305023Y106525756D01*
X12226005Y106377922D01*
X12119659Y106248341D01*
X11990078Y106141995D01*
X11842244Y106062977D01*
X11842241Y106062976D01*
X11842239Y106062975D01*
X11681825Y106014314D01*
X11681824Y106014314D01*
X11681821Y106014313D01*
X11556804Y106002000D01*
X11473196Y106002000D01*
X11348179Y106014313D01*
X11348176Y106014314D01*
X11348175Y106014314D01*
X11187761Y106062975D01*
X11187759Y106062976D01*
X11187756Y106062977D01*
X11039922Y106141995D01*
X10910341Y106248341D01*
X10803995Y106377922D01*
X10724977Y106525756D01*
X10676313Y106686179D01*
X10659883Y106853000D01*
X10676313Y107019821D01*
X10724977Y107180244D01*
X10803995Y107328078D01*
X10910341Y107457659D01*
X11039922Y107564005D01*
X11187756Y107643023D01*
X11187759Y107643024D01*
X11187761Y107643025D01*
X11348175Y107691686D01*
X11348176Y107691686D01*
X11348179Y107691687D01*
X11473196Y107704000D01*
X11556804Y107704000D01*
X11681821Y107691687D01*
X11681821Y107691687D01*
G37*
G36*
X-11604772Y107925297D02*
X-11449900Y107861147D01*
X-11310519Y107768015D01*
X-11191985Y107649481D01*
X-11098853Y107510100D01*
X-11034703Y107355228D01*
X-11002000Y107190816D01*
X-11002000Y107023184D01*
X-11034703Y106858772D01*
X-11098853Y106703900D01*
X-11191985Y106564519D01*
X-11310519Y106445985D01*
X-11449900Y106352853D01*
X-11604772Y106288703D01*
X-11769184Y106256000D01*
X-11936816Y106256000D01*
X-12101228Y106288703D01*
X-12256100Y106352853D01*
X-12395481Y106445985D01*
X-12514015Y106564519D01*
X-12607147Y106703900D01*
X-12671297Y106858772D01*
X-12704000Y107023184D01*
X-12704000Y107190816D01*
X-12671297Y107355228D01*
X-12607147Y107510100D01*
X-12514015Y107649481D01*
X-12395481Y107768015D01*
X-12256100Y107861147D01*
X-12101228Y107925297D01*
X-11936816Y107958000D01*
X-11769184Y107958000D01*
X-11604772Y107925297D01*
X-11604772Y107925297D01*
G37*
G36*
X12404941Y117820752D02*
X12404943Y117820751D01*
X12404944Y117820751D01*
X12960190Y117590761D01*
X12960191Y117590760D01*
X13459902Y117256864D01*
X13884864Y116831902D01*
X13884866Y116831899D01*
X14218761Y116332190D01*
X14448751Y115776944D01*
X14448752Y115776941D01*
X14566000Y115187499D01*
X14566000Y114586501D01*
X14539511Y114453332D01*
X14448751Y113997056D01*
X14218761Y113441810D01*
X14151021Y113340430D01*
X13884864Y112942098D01*
X13459902Y112517136D01*
X13459899Y112517134D01*
X12960190Y112183239D01*
X12404944Y111953249D01*
X12404943Y111953249D01*
X12404941Y111953248D01*
X11815499Y111836000D01*
X11214501Y111836000D01*
X10625059Y111953248D01*
X10625057Y111953249D01*
X10625056Y111953249D01*
X10069810Y112183239D01*
X9570101Y112517134D01*
X9570098Y112517136D01*
X9145136Y112942098D01*
X8878979Y113340430D01*
X8811239Y113441810D01*
X8581249Y113997056D01*
X8490490Y114453332D01*
X8464000Y114586501D01*
X8464000Y115187499D01*
X8581248Y115776941D01*
X8581249Y115776944D01*
X8811239Y116332190D01*
X9145134Y116831899D01*
X9145136Y116831902D01*
X9570098Y117256864D01*
X10069809Y117590760D01*
X10069810Y117590761D01*
X10625056Y117820751D01*
X10625057Y117820751D01*
X10625059Y117820752D01*
X11214501Y117938000D01*
X11815499Y117938000D01*
X12404941Y117820752D01*
X12404941Y117820752D01*
G37*
G36*
X-10963059Y117820752D02*
X-10963057Y117820751D01*
X-10963056Y117820751D01*
X-10407810Y117590761D01*
X-10407809Y117590760D01*
X-9908098Y117256864D01*
X-9483136Y116831902D01*
X-9483134Y116831899D01*
X-9149239Y116332190D01*
X-8919249Y115776944D01*
X-8919248Y115776941D01*
X-8802000Y115187499D01*
X-8802000Y114586501D01*
X-8828489Y114453332D01*
X-8919249Y113997056D01*
X-9149239Y113441810D01*
X-9216979Y113340430D01*
X-9483136Y112942098D01*
X-9908098Y112517136D01*
X-9908101Y112517134D01*
X-10407810Y112183239D01*
X-10963056Y111953249D01*
X-10963057Y111953249D01*
X-10963059Y111953248D01*
X-11552501Y111836000D01*
X-12153499Y111836000D01*
X-12742941Y111953248D01*
X-12742943Y111953249D01*
X-12742944Y111953249D01*
X-13298190Y112183239D01*
X-13797899Y112517134D01*
X-13797902Y112517136D01*
X-14222864Y112942098D01*
X-14489021Y113340430D01*
X-14556761Y113441810D01*
X-14786751Y113997056D01*
X-14877510Y114453332D01*
X-14904000Y114586501D01*
X-14904000Y115187499D01*
X-14786752Y115776941D01*
X-14786751Y115776944D01*
X-14556761Y116332190D01*
X-14222866Y116831899D01*
X-14222864Y116831902D01*
X-13797902Y117256864D01*
X-13298191Y117590760D01*
X-13298190Y117590761D01*
X-12742944Y117820751D01*
X-12742943Y117820751D01*
X-12742941Y117820752D01*
X-12153499Y117938000D01*
X-11552501Y117938000D01*
X-10963059Y117820752D01*
X-10963059Y117820752D01*
G37*
M02*
