G04 #@! TF.GenerationSoftware,KiCad,Pcbnew,(5.0.1)-3*
G04 #@! TF.CreationDate,2020-02-12T20:38:56-05:00*
G04 #@! TF.ProjectId,TinkerBot,54696E6B6572426F742E6B696361645F,rev?*
G04 #@! TF.SameCoordinates,Original*
G04 #@! TF.FileFunction,Profile,NP*
%FSLAX46Y46*%
G04 Gerber Fmt 4.6, Leading zero omitted, Abs format (unit mm)*
G04 Created by KiCad (PCBNEW (5.0.1)-3) date 2/12/2020 8:38:56 PM*
%MOMM*%
%LPD*%
G01*
G04 APERTURE LIST*
%ADD10C,0.200000*%
G04 APERTURE END LIST*
D10*
X43608000Y-88566000D02*
G75*
G03X43608000Y-88566000I-5000000J0D01*
G01*
X54704000Y-79502000D02*
G75*
G03X54704000Y-79502000I-5000000J0D01*
G01*
X65791000Y-70613000D02*
G75*
G03X65791000Y-70613000I-5000000J0D01*
G01*
X21246682Y87900379D02*
G75*
G02X21446098Y87999604I199416J-150775D01*
G01*
X21246682Y87900379D02*
G75*
G02X20583283Y88626199I-398833J301550D01*
G01*
X20700999Y88838334D02*
G75*
G02X20583283Y88626199I-249999J-1D01*
G01*
X21446098Y87999604D02*
X22955902Y87999604D01*
X-54374000Y66270D02*
G75*
G03X-54374000Y66270I-1500000J0D01*
G01*
X-33824000Y66270D02*
G75*
G03X-33824000Y66270I-1500000J0D01*
G01*
X36002000Y173000D02*
G75*
G03X36002000Y173000I-1500000J0D01*
G01*
X56552000Y173000D02*
G75*
G03X56552000Y173000I-1500000J0D01*
G01*
X-21181283Y-80940468D02*
G75*
G02X-21844682Y-81666288I-264566J-424270D01*
G01*
X-21299000Y-84717063D02*
G75*
G03X-21299000Y-84717063I-1500000J0D01*
G01*
X-22044098Y-92000396D02*
G75*
G02X-21844682Y-92099621I0J-250000D01*
G01*
X23818717Y-91373801D02*
G75*
G02X23155318Y-92099621I-264566J-424270D01*
G01*
X22955902Y-92000396D02*
X21446098Y-92000396D01*
X23701000Y-95150396D02*
G75*
G03X23701000Y-95150396I-1500000J0D01*
G01*
X23818717Y-101807135D02*
G75*
G02X23701000Y-101595000I132283J212135D01*
G01*
X20701000Y-101595000D02*
G75*
G02X20583283Y-101807135I-250000J0D01*
G01*
X-24006247Y115803805D02*
G75*
G02X23420018Y115798557I23710284J-25745338D01*
G01*
X23420018Y-115681623D02*
G75*
G02X-24011944Y-115681623I-23715981J25740090D01*
G01*
X-78571958Y-65412013D02*
G75*
G02X-81795963Y-58057702I6775995J7354311D01*
G01*
X81204038Y-58057702D02*
G75*
G02X77980032Y-65412014I-10000001J0D01*
G01*
X-81795963Y58174636D02*
G75*
G02X-78571958Y65528948I10000000J1D01*
G01*
X77980032Y65528948D02*
G75*
G02X81204037Y58174637I-6775995J-7354311D01*
G01*
X-81795963Y-58057702D02*
X-81795963Y58174637D01*
X81204037Y58174637D02*
X81204037Y-58057702D01*
X77980032Y-65412014D02*
X23420018Y-115681623D01*
X23420018Y115798557D02*
X77980032Y65528948D01*
X-78571958Y65528948D02*
X-24011944Y115798557D01*
X-24011944Y-115681623D02*
X-78571958Y-65412014D01*
X-21299000Y95282937D02*
G75*
G03X-21299000Y95282937I-1500000J0D01*
G01*
X-21299000Y91294207D02*
G75*
G02X-21181283Y91506342I250000J0D01*
G01*
X-69299000Y16066270D02*
G75*
G03X-69299000Y16066270I-1500000J0D01*
G01*
X-21298999Y101727540D02*
G75*
G02X-21181283Y101939675I249999J1D01*
G01*
X21446098Y92132937D02*
G75*
G02X21246682Y92232162I0J250000D01*
G01*
X71701000Y16066270D02*
G75*
G03X71701000Y16066270I-1500000J0D01*
G01*
X-23753318Y87900379D02*
G75*
G02X-23553902Y87999604I199416J-150775D01*
G01*
X-21299000Y-95150396D02*
G75*
G03X-21299000Y-95150396I-1500000J0D01*
G01*
X-23553902Y92132937D02*
G75*
G02X-23753318Y92232162I0J250000D01*
G01*
X-21844682Y102665495D02*
G75*
G02X-22044098Y102566270I-199416J150775D01*
G01*
X-21844682Y92232162D02*
G75*
G02X-21181283Y91506342I398833J-301550D01*
G01*
X-23753318Y87900379D02*
G75*
G02X-24416717Y88626199I-398833J301550D01*
G01*
X23701000Y95282937D02*
G75*
G03X23701000Y95282937I-1500000J0D01*
G01*
X-22044098Y87999604D02*
G75*
G02X-21844682Y87900379I0J-250000D01*
G01*
X-69299000Y-1933730D02*
G75*
G03X-69299000Y-1933730I-1500000J0D01*
G01*
X-24299001Y88838334D02*
G75*
G02X-24416717Y88626199I-249999J-1D01*
G01*
X23701000Y-84717063D02*
G75*
G03X23701000Y-84717063I-1500000J0D01*
G01*
X-21299000Y84849604D02*
G75*
G03X-21299000Y84849604I-1500000J0D01*
G01*
X-23553902Y92132937D02*
X-22044098Y92132937D01*
X23701000Y84849604D02*
G75*
G03X23701000Y84849604I-1500000J0D01*
G01*
X-21844682Y92232162D02*
G75*
G02X-22044098Y92132937I-199416J150775D01*
G01*
X-24299000Y88838333D02*
X-24299000Y91294207D01*
X71701000Y-1933730D02*
G75*
G03X71701000Y-1933730I-1500000J0D01*
G01*
X-24416717Y91506342D02*
G75*
G02X-24299000Y91294207I-132283J-212135D01*
G01*
X-24416717Y91506342D02*
G75*
G02X-23753318Y92232162I264566J424270D01*
G01*
X23155318Y102665495D02*
G75*
G02X22955902Y102566270I-199416J150775D01*
G01*
X21246682Y98333712D02*
G75*
G02X21446098Y98432937I199416J-150775D01*
G01*
X23701000Y99271667D02*
X23701000Y101727541D01*
X21246682Y98333712D02*
G75*
G02X20583283Y99059532I-398833J301550D01*
G01*
X20583283Y101939676D02*
G75*
G02X20701000Y101727541I-132283J-212135D01*
G01*
X21246682Y-92099621D02*
G75*
G02X20583283Y-91373801I-398833J301550D01*
G01*
X23155318Y-87767838D02*
G75*
G02X23818717Y-88493658I398833J-301550D01*
G01*
X20583283Y-98926991D02*
G75*
G02X20701000Y-99139126I-132283J-212135D01*
G01*
X21446098Y-98300396D02*
G75*
G02X21246682Y-98201171I0J250000D01*
G01*
X23701000Y-99139126D02*
G75*
G02X23818717Y-98926991I250000J0D01*
G01*
X-22044098Y87999604D02*
X-23553902Y87999604D01*
X-23553902Y102566270D02*
G75*
G02X-23753318Y102665495I0J250000D01*
G01*
X20583283Y-98926991D02*
G75*
G02X21246682Y-98201171I264566J424270D01*
G01*
X21446098Y-87867063D02*
G75*
G02X21246682Y-87767838I0J250000D01*
G01*
X23155318Y-98201171D02*
G75*
G02X22955902Y-98300396I-199416J150775D01*
G01*
X-23553902Y102566270D02*
X-22044098Y102566270D01*
X-23753318Y98333712D02*
G75*
G02X-23553902Y98432937I199416J-150775D01*
G01*
X20583283Y-88493658D02*
G75*
G02X20701000Y-88705793I-132283J-212135D01*
G01*
X22955902Y98432937D02*
G75*
G02X23155318Y98333712I0J-250000D01*
G01*
X23701001Y101727540D02*
G75*
G02X23818717Y101939675I249999J1D01*
G01*
X23818717Y99059532D02*
G75*
G02X23701000Y99271667I132283J212135D01*
G01*
X21446098Y102566270D02*
G75*
G02X21246682Y102665495I0J250000D01*
G01*
X-23753318Y98333712D02*
G75*
G02X-24416717Y99059532I-398833J301550D01*
G01*
X22955902Y-92000396D02*
G75*
G02X23155318Y-92099621I0J-250000D01*
G01*
X23818717Y99059532D02*
G75*
G02X23155318Y98333712I-264566J-424270D01*
G01*
X-24416717Y101939675D02*
G75*
G02X-23753318Y102665495I264566J424270D01*
G01*
X23701000Y-88705793D02*
X23701000Y-91161667D01*
X-21299000Y101727541D02*
X-21299000Y99271667D01*
X20700999Y-91161666D02*
G75*
G02X20583283Y-91373801I-249999J-1D01*
G01*
X21446098Y98432937D02*
X22955902Y98432937D01*
X20701000Y99271667D02*
G75*
G02X20583283Y99059532I-250000J0D01*
G01*
X21246682Y-92099621D02*
G75*
G02X21446098Y-92000396I199416J-150775D01*
G01*
X20583283Y-88493658D02*
G75*
G02X21246682Y-87767838I264566J424270D01*
G01*
X20583283Y101939675D02*
G75*
G02X21246682Y102665495I264566J424270D01*
G01*
X23701000Y-99139126D02*
X23701000Y-101595000D01*
X22955902Y102566270D02*
X21446098Y102566270D01*
X-22044098Y98432937D02*
G75*
G02X-21844682Y98333712I0J-250000D01*
G01*
X21446098Y-87867063D02*
X22955902Y-87867063D01*
X23155318Y-98201171D02*
G75*
G02X23818717Y-98926991I398833J-301550D01*
G01*
X20701000Y101727541D02*
X20701000Y99271667D01*
X-21844682Y102665495D02*
G75*
G02X-21181283Y101939675I398833J-301550D01*
G01*
X21446098Y-98300396D02*
X22955902Y-98300396D01*
X23155318Y-87767838D02*
G75*
G02X22955902Y-87867063I-199416J150775D01*
G01*
X23701000Y-88705793D02*
G75*
G02X23818717Y-88493658I250000J0D01*
G01*
X-21181283Y99059532D02*
G75*
G02X-21844682Y98333712I-264566J-424270D01*
G01*
X-22044098Y98432937D02*
X-23553902Y98432937D01*
X23818717Y-101807135D02*
G75*
G02X23155318Y-102532955I-264566J-424270D01*
G01*
X20701000Y-91161667D02*
X20701000Y-88705793D01*
X23155318Y102665495D02*
G75*
G02X23818717Y101939675I398833J-301550D01*
G01*
X-21181283Y99059532D02*
G75*
G02X-21299000Y99271667I132283J212135D01*
G01*
X-24299000Y99271667D02*
X-24299000Y101727541D01*
X-21299000Y91294207D02*
X-21299000Y88838333D01*
X-21181283Y88626198D02*
G75*
G02X-21299000Y88838333I132283J212135D01*
G01*
X-24299000Y99271667D02*
G75*
G02X-24416717Y99059532I-250000J0D01*
G01*
X23818717Y-91373802D02*
G75*
G02X23701000Y-91161667I132283J212135D01*
G01*
X-24416717Y101939676D02*
G75*
G02X-24299000Y101727541I-132283J-212135D01*
G01*
X-21181283Y88626199D02*
G75*
G02X-21844682Y87900379I-264566J-424270D01*
G01*
X-21844682Y-87767838D02*
G75*
G02X-21181283Y-88493658I398833J-301550D01*
G01*
X31326000Y-43902497D02*
G75*
G03X31326000Y-43902497I-1500000J0D01*
G01*
X-28924000Y-43902497D02*
G75*
G03X-28924000Y-43902497I-1500000J0D01*
G01*
X-24299000Y-88705793D02*
X-24299000Y-91161667D01*
X-23753318Y-92099621D02*
G75*
G02X-23553902Y-92000396I199416J-150775D01*
G01*
X-23553902Y-102433730D02*
X-22044098Y-102433730D01*
X20583283Y81073009D02*
G75*
G02X20701000Y80860874I-132283J-212135D01*
G01*
X20701000Y91294207D02*
X20701000Y88838333D01*
X20583283Y91506342D02*
G75*
G02X20701000Y91294207I-132283J-212135D01*
G01*
X-24299000Y-101595000D02*
G75*
G02X-24416717Y-101807135I-250000J0D01*
G01*
X20701000Y80860874D02*
X20701000Y78405000D01*
X20583283Y81073009D02*
G75*
G02X21246682Y81798829I264566J424270D01*
G01*
X21446098Y81699604D02*
G75*
G02X21246682Y81798829I0J250000D01*
G01*
X23701000Y91294207D02*
G75*
G02X23818717Y91506342I250000J0D01*
G01*
X-21844682Y-98201171D02*
G75*
G02X-21181283Y-98926991I398833J-301550D01*
G01*
X22955902Y-102433730D02*
X21446098Y-102433730D01*
X21246682Y-102532955D02*
G75*
G02X21446098Y-102433730I199416J-150775D01*
G01*
X-24416717Y-88493658D02*
G75*
G02X-24299000Y-88705793I-132283J-212135D01*
G01*
X-21299000Y-101595000D02*
X-21299000Y-99139126D01*
X-24416717Y-98926991D02*
G75*
G02X-23753318Y-98201171I264566J424270D01*
G01*
X23155318Y92232162D02*
G75*
G02X22955902Y92132937I-199416J150775D01*
G01*
X21246682Y-102532955D02*
G75*
G02X20583283Y-101807135I-398833J301550D01*
G01*
X-21299000Y-88705793D02*
G75*
G02X-21181283Y-88493658I250000J0D01*
G01*
X-21844682Y-98201171D02*
G75*
G02X-22044098Y-98300396I-199416J150775D01*
G01*
X23818717Y78192865D02*
G75*
G02X23155318Y77467045I-264566J-424270D01*
G01*
X-21299000Y-91161667D02*
X-21299000Y-88705793D01*
X-21181283Y-91373801D02*
G75*
G02X-21844682Y-92099621I-264566J-424270D01*
G01*
X-23753318Y-92099621D02*
G75*
G02X-24416717Y-91373801I-398833J301550D01*
G01*
X-21181283Y-101807135D02*
G75*
G02X-21844682Y-102532955I-264566J-424270D01*
G01*
X-24416717Y-98926991D02*
G75*
G02X-24299000Y-99139126I-132283J-212135D01*
G01*
X-23753318Y-102532955D02*
G75*
G02X-24416717Y-101807135I-398833J301550D01*
G01*
X23818717Y78192865D02*
G75*
G02X23701000Y78405000I132283J212135D01*
G01*
X-23553902Y-98300396D02*
G75*
G02X-23753318Y-98201171I0J250000D01*
G01*
X20701000Y78405000D02*
G75*
G02X20583283Y78192865I-250000J0D01*
G01*
X23818717Y88626199D02*
G75*
G02X23155318Y87900379I-264566J-424270D01*
G01*
X-24299001Y-91161666D02*
G75*
G02X-24416717Y-91373801I-249999J-1D01*
G01*
X22955902Y77566270D02*
G75*
G02X23155318Y77467045I0J-250000D01*
G01*
X22955902Y81699604D02*
X21446098Y81699604D01*
X23701000Y78405000D02*
X23701000Y80860874D01*
X23155318Y81798829D02*
G75*
G02X22955902Y81699604I-199416J150775D01*
G01*
X21446098Y77566270D02*
X22955902Y77566270D01*
X23155318Y92232162D02*
G75*
G02X23818717Y91506342I398833J-301550D01*
G01*
X-21181283Y-91373802D02*
G75*
G02X-21299000Y-91161667I132283J212135D01*
G01*
X-23553902Y-92000396D02*
X-22044098Y-92000396D01*
X21246682Y77467045D02*
G75*
G02X20583283Y78192865I-398833J301550D01*
G01*
X-23753318Y-102532955D02*
G75*
G02X-23553902Y-102433730I199416J-150775D01*
G01*
X21246682Y77467045D02*
G75*
G02X21446098Y77566270I199416J-150775D01*
G01*
X23155318Y81798829D02*
G75*
G02X23818717Y81073009I398833J-301550D01*
G01*
X20583283Y91506342D02*
G75*
G02X21246682Y92232162I264566J424270D01*
G01*
X-23553902Y-87867063D02*
G75*
G02X-23753318Y-87767838I0J250000D01*
G01*
X-21299000Y-99139126D02*
G75*
G02X-21181283Y-98926991I250000J0D01*
G01*
X-22044098Y-98300396D02*
X-23553902Y-98300396D01*
X23701000Y80860874D02*
G75*
G02X23818717Y81073009I250000J0D01*
G01*
X-24299000Y-99139126D02*
X-24299000Y-101595000D01*
X22955902Y-102433730D02*
G75*
G02X23155318Y-102532955I0J-250000D01*
G01*
X-21844682Y-87767838D02*
G75*
G02X-22044098Y-87867063I-199416J150775D01*
G01*
X-21844682Y81798829D02*
G75*
G02X-22044098Y81699604I-199416J150775D01*
G01*
X-22044098Y-87867063D02*
X-23553902Y-87867063D01*
X-22044098Y-102433730D02*
G75*
G02X-21844682Y-102532955I0J-250000D01*
G01*
X22955902Y92132937D02*
X21446098Y92132937D01*
X20701000Y-101595000D02*
X20701000Y-99139126D01*
X-24416717Y-88493658D02*
G75*
G02X-23753318Y-87767838I264566J424270D01*
G01*
X-21181283Y-101807135D02*
G75*
G02X-21299000Y-101595000I132283J212135D01*
G01*
X-24416717Y-78060325D02*
G75*
G02X-23753318Y-77334505I264566J424270D01*
G01*
X23701000Y-78272459D02*
X23701000Y-80728333D01*
X-21844682Y-77334505D02*
G75*
G02X-21181283Y-78060325I398833J-301550D01*
G01*
X-21181283Y78192865D02*
G75*
G02X-21299000Y78405000I132283J212135D01*
G01*
X-21299000Y80860874D02*
X-21299000Y78405000D01*
X-23553902Y-81567063D02*
X-22044098Y-81567063D01*
X20583283Y-78060325D02*
G75*
G02X21246682Y-77334505I264566J424270D01*
G01*
X23155318Y-77334505D02*
G75*
G02X22955902Y-77433730I-199416J150775D01*
G01*
X21246682Y-81666288D02*
G75*
G02X20583283Y-80940468I-398833J301550D01*
G01*
X-23753318Y77467045D02*
G75*
G02X-23553902Y77566270I199416J-150775D01*
G01*
X-22044098Y77566270D02*
X-23553902Y77566270D01*
X-21299000Y-80728333D02*
X-21299000Y-78272459D01*
X-24416717Y-78060324D02*
G75*
G02X-24299000Y-78272459I-132283J-212135D01*
G01*
X20701000Y-80728333D02*
X20701000Y-78272459D01*
X23818717Y-80940468D02*
G75*
G02X23155318Y-81666288I-264566J-424270D01*
G01*
X-21844682Y-77334505D02*
G75*
G02X-22044098Y-77433730I-199416J150775D01*
G01*
X23155318Y-77334505D02*
G75*
G02X23818717Y-78060325I398833J-301550D01*
G01*
X23818717Y88626198D02*
G75*
G02X23701000Y88838333I132283J212135D01*
G01*
X-21844682Y81798829D02*
G75*
G02X-21181283Y81073009I398833J-301550D01*
G01*
X-21181283Y78192865D02*
G75*
G02X-21844682Y77467045I-264566J-424270D01*
G01*
X-24416717Y81073009D02*
G75*
G02X-24299000Y80860874I-132283J-212135D01*
G01*
X21446098Y-77433730D02*
G75*
G02X21246682Y-77334505I0J250000D01*
G01*
X23701001Y-78272460D02*
G75*
G02X23818717Y-78060325I249999J1D01*
G01*
X22955902Y-81567063D02*
X21446098Y-81567063D01*
X-23553902Y81699604D02*
X-22044098Y81699604D01*
X-24416717Y81073009D02*
G75*
G02X-23753318Y81798829I264566J424270D01*
G01*
X20583283Y-78060324D02*
G75*
G02X20701000Y-78272459I-132283J-212135D01*
G01*
X-23553902Y81699604D02*
G75*
G02X-23753318Y81798829I0J250000D01*
G01*
X22955902Y87999604D02*
G75*
G02X23155318Y87900379I0J-250000D01*
G01*
X-23753318Y-81666288D02*
G75*
G02X-23553902Y-81567063I199416J-150775D01*
G01*
X-24299000Y-80728333D02*
G75*
G02X-24416717Y-80940468I-250000J0D01*
G01*
X-23553902Y-77433730D02*
G75*
G02X-23753318Y-77334505I0J250000D01*
G01*
X-22044098Y77566270D02*
G75*
G02X-21844682Y77467045I0J-250000D01*
G01*
X23701000Y88838333D02*
X23701000Y91294207D01*
X23818717Y-80940468D02*
G75*
G02X23701000Y-80728333I132283J212135D01*
G01*
X21246682Y-81666288D02*
G75*
G02X21446098Y-81567063I199416J-150775D01*
G01*
X-24299000Y-78272459D02*
X-24299000Y-80728333D01*
X-21181283Y-80940468D02*
G75*
G02X-21299000Y-80728333I132283J212135D01*
G01*
X21446098Y-77433730D02*
X22955902Y-77433730D01*
X22955902Y-81567063D02*
G75*
G02X23155318Y-81666288I0J-250000D01*
G01*
X-24299000Y78405000D02*
G75*
G02X-24416717Y78192865I-250000J0D01*
G01*
X20701000Y-80728333D02*
G75*
G02X20583283Y-80940468I-250000J0D01*
G01*
X-22044098Y-77433730D02*
X-23553902Y-77433730D01*
X-21299000Y80860874D02*
G75*
G02X-21181283Y81073009I250000J0D01*
G01*
X-23753318Y77467045D02*
G75*
G02X-24416717Y78192865I-398833J301550D01*
G01*
X-22044098Y-81567063D02*
G75*
G02X-21844682Y-81666288I0J-250000D01*
G01*
X-21298999Y-78272460D02*
G75*
G02X-21181283Y-78060325I249999J1D01*
G01*
X-23753318Y-81666288D02*
G75*
G02X-24416717Y-80940468I-398833J301550D01*
G01*
X-24299000Y78405000D02*
X-24299000Y80860874D01*
M02*
