M48
;DRILL file {KiCad (5.0.1)-3} date 2/12/2020 8:38:52 PM
;FORMAT={-:-/ absolute / inch / decimal}
FMAT,2
INCH,TZ
T1C0.0130
T2C0.0157
T3C0.0197
T4C0.0300
T5C0.0315
T6C0.0354
T7C0.0394
T8C0.0433
T9C0.1181
T10C0.1181
T11C0.1378
%
G90
G05
M72
T1
X-0.3489Y-0.2084
X-0.3489Y-0.2674
X-0.3489Y-0.3265
X-0.2898Y-0.2084
X-0.2898Y-0.2674
X-0.2898Y-0.3265
T2
X-0.7167Y-0.4132
X-0.6817Y-0.0632
X-0.3667Y0.2168
X0.3133Y0.0768
X0.6133Y-0.4432
T3
X0.3648Y4.5231
X0.3907Y4.5857
X0.3907Y4.4605
X0.4533Y4.6117
X0.4533Y4.4345
X0.516Y4.5857
X0.516Y4.4605
X0.5419Y4.5231
X-0.5552Y4.5231
X-0.5293Y4.5857
X-0.5293Y4.4605
X-0.4667Y4.6117
X-0.4667Y4.4345
X-0.404Y4.5857
X-0.404Y4.4605
X-0.3781Y4.5231
T4
X-1.9944Y0.053
X-1.9944Y-0.0455
X-1.6007Y0.053
X-1.6007Y-0.0455
X1.7133Y-0.7782
X1.7133Y-0.8782
X1.7133Y-0.9782
X-0.1919Y-4.6065
X-0.0919Y-4.6065
X0.0081Y-4.6065
X0.1081Y-4.6065
X1.5665Y0.056
X1.5665Y-0.0424
X1.9602Y0.056
X1.9602Y-0.0424
T5
X2.1083Y-1.6363
X2.1083Y-1.8332
X1.1733Y0.2968
X1.5733Y0.2968
X2.2583Y-1.6332
X2.2583Y-1.83
X1.9533Y0.2968
X2.3533Y0.2968
X-0.0217Y-0.4432
X0.3783Y-0.4432
X-0.0217Y-0.1832
X0.3783Y-0.1832
X0.4533Y4.2068
X0.4533Y3.8068
X-0.0217Y-0.0632
X0.3783Y-0.0632
X0.6233Y-1.1332
X0.7233Y-1.0332
X0.7233Y-1.2332
X-1.6067Y0.2968
X-1.2067Y0.2968
X-0.6901Y-0.3332
X-0.5917Y-0.3332
X-0.1469Y-1.0932
X-0.1469Y-1.1932
X-0.1469Y-1.2932
X-0.1469Y-1.3932
X0.1531Y-1.0932
X0.1531Y-1.1932
X0.1531Y-1.2932
X0.1531Y-1.3932
X-0.9367Y-1.1332
X-0.8367Y-1.0332
X-0.8367Y-1.2332
X-0.0217Y-0.3132
X0.3783Y-0.3132
X-0.4667Y4.2168
X-0.4667Y3.8168
X-2.3867Y0.2968
X-1.9867Y0.2968
X1.6933Y-1.5432
X1.6933Y-1.9432
X-0.7417Y-0.2132
X-0.5448Y-0.2132
T6
X-0.0567Y3.3688
X0.0433Y3.3688
X1.6533Y-1.2832
X1.7533Y-1.2832
T7
X2.3622Y2.7559
X2.4622Y2.7559
X-0.4517Y0.4668
X-0.3517Y0.4668
X-0.2517Y0.4668
X-0.1517Y0.4668
X1.9083Y1.1218
X1.9083Y1.0218
X1.9083Y0.9218
X1.9083Y0.8218
X0.6633Y0.4768
X0.7633Y0.4768
X0.8633Y0.4768
X0.9633Y0.4768
X-2.3622Y2.7559
X-2.2622Y2.7559
T8
X2.0883Y-1.4332
X2.1883Y-1.4332
X2.2883Y-1.4332
T9
X0.4533Y4.5231
X-0.4667Y4.5231
T10
X-2.9528Y2.2441
X-2.9528Y-2.2441
X2.9528Y2.2441
X2.9528Y-2.2441
T11
X2.1883Y-0.7773
T7
X2.754Y-0.7032G85X2.8327Y-0.7032
G05
X2.754Y-0.9394G85X2.8327Y-0.9394
G05
X2.9784Y-0.8607G85X2.9784Y-0.7819
G05
T0
M30
